<?xml version="1.0" ?><svg id="Layer_1" style="enable-background:new 0 0 128 128;" version="1.1" viewBox="0 0 128 128" xml:space="preserve" xmlns="http://www.w3.org/2000/svg" xmlns:xlink="http://www.w3.org/1999/xlink"><style type="text/css">
	.st0{fill:#F7F7EB;}
	.st1{fill:#FFC298;}
	.st2{fill:#E1927A;}
	.st3{fill:#DC5240;}
	.st4{fill:#892E1D;}
	.st5{fill:#AA4628;}
	.st6{fill:#6F1E14;}
	.st7{fill:#2C0412;}
	.st8{fill:#A4D877;}
	.st9{fill:#2AC06F;}
	.st10{fill:#F54045;}
	.st11{fill:#A91B35;}
	.st12{fill:#2652E4;}
	.st13{fill:#BDE5EC;}
	.st14{fill:#172A91;}
	.st15{fill:#F9A73D;}
	.st16{fill:#D25C2B;}
	.st17{fill:#812F4B;}
	.st18{fill:#3B0B1B;}
	.st19{fill:#FA9A31;}
	.st20{fill:#DC5F36;}
	.st21{fill:#BEECBD;}
	.st22{fill:#26E490;}
	.st23{fill:#10916A;}
	.st24{fill:#ECC6C3;}
	.st25{fill:#E44450;}
	.st26{fill:none;stroke:#E44450;stroke-width:2;stroke-linecap:round;stroke-miterlimit:10;}
	.st27{fill:none;stroke:#ECC6C3;stroke-width:4;stroke-linecap:round;stroke-miterlimit:10;}
	.st28{fill:url(#SVGID_1_);}
	.st29{fill:none;stroke:#BDE5EC;stroke-width:14;stroke-linecap:round;stroke-linejoin:round;stroke-miterlimit:10;}
	.st30{fill:none;stroke:#FFFFFF;stroke-width:6;stroke-linecap:round;stroke-miterlimit:10;}
	.st31{fill:none;stroke:#E44450;stroke-width:6;stroke-miterlimit:10;}
	.st32{fill:url(#SVGID_2_);}
	.st33{fill:none;stroke:#E44450;stroke-width:4;stroke-miterlimit:10;stroke-dasharray:6,4;}
	.st34{fill:none;stroke:#BDE5EC;stroke-width:4;stroke-miterlimit:10;}
	.st35{fill:url(#SVGID_3_);}
	.st36{fill:none;stroke:#FFFFFF;stroke-width:2;stroke-linecap:round;stroke-miterlimit:10;}
	.st37{fill:#FFFFFF;}
	.st38{opacity:0.5;}
	.st39{fill:none;stroke:#E1927A;stroke-width:10;stroke-linecap:round;stroke-miterlimit:10;}
	.st40{fill:#C1705D;}
	.st41{fill:none;stroke:#E1927A;stroke-width:2.8371;stroke-linecap:round;stroke-miterlimit:10;}
</style><g><path class="st13" d="M65.6,48.9h-17l-8.9-3v-4.8l9.2-3h16.7c3,0,5.4,2.4,5.4,5.4v0C71,46.5,68.6,48.9,65.6,48.9z"/><path class="st12" d="M28.3,63l-17,0L0.5,47.8l5.9,0c1.8,0,3.5,0.6,4.9,1.7L28.3,63z"/><path class="st12" d="M41,20.5l-7.4,0l20,46.5l24.7,0l-26-40.4C49.8,22.8,45.6,20.5,41,20.5z"/><path class="st13" d="M65.6,103.9h-17l-8.9-3v-4.8l9.2-3h16.7c3,0,5.4,2.4,5.4,5.4v0C71,101.5,68.6,103.9,65.6,103.9z"/><path class="st13" d="M118.4,80.4H31c-4.6,0-8.9-2.2-11.6-6L9.6,60.5h90.1c7,0,13.7,3.3,18,8.9l3.7,4.9   C123.4,76.8,121.6,80.4,118.4,80.4z"/><path class="st36" d="M93.1,63.8c2.6,3.8,7,6,11.6,6h11.4"/><path class="st12" d="M40,123h-7.4l20-46.5h24.7l-26,40.4C48.8,120.7,44.6,123,40,123z"/><path class="st25" d="M98.3,11.7L78.8,45.4c-1.4,2.5,0.4,5.6,3.2,5.6H121c2.9,0,4.7-3.1,3.2-5.6l-19.5-33.7   C103.3,9.2,99.8,9.2,98.3,11.7z"/><g><polygon class="st37" points="105,21.5 103,36.4 100.1,36.4 98,21.5   "/></g><circle class="st37" cx="101.5" cy="42.7" r="2.5"/><circle class="st37" cx="76.5" cy="66.5" r="2.5"/><circle class="st37" cx="65.5" cy="66.5" r="2.5"/><circle class="st37" cx="55.5" cy="66.5" r="2.5"/><circle class="st37" cx="45.5" cy="66.5" r="2.5"/></g></svg>