<?xml version="1.0" ?><svg id="Layer_1" style="enable-background:new 0 0 128 128;" version="1.1" viewBox="0 0 128 128" xml:space="preserve" xmlns="http://www.w3.org/2000/svg" xmlns:xlink="http://www.w3.org/1999/xlink"><style type="text/css">
	.st0{fill:#F7F7EB;}
	.st1{fill:#FFC298;}
	.st2{fill:#E1927A;}
	.st3{fill:#DC5240;}
	.st4{fill:#892E1D;}
	.st5{fill:#AA4628;}
	.st6{fill:#6F1E14;}
	.st7{fill:#2C0412;}
	.st8{fill:#A4D877;}
	.st9{fill:#2AC06F;}
	.st10{fill:#F54045;}
	.st11{fill:#A91B35;}
	.st12{fill:#2652E4;}
	.st13{fill:#BDE5EC;}
	.st14{fill:#172A91;}
	.st15{fill:#F9A73D;}
	.st16{fill:#D25C2B;}
	.st17{fill:#812F4B;}
	.st18{fill:#3B0B1B;}
	.st19{fill:#FA9A31;}
	.st20{fill:#DC5F36;}
	.st21{fill:#BEECBD;}
	.st22{fill:#26E490;}
	.st23{fill:#10916A;}
	.st24{fill:#ECC6C3;}
	.st25{fill:#E44450;}
	.st26{fill:none;stroke:#E44450;stroke-width:2;stroke-linecap:round;stroke-miterlimit:10;}
	.st27{fill:none;stroke:#ECC6C3;stroke-width:4;stroke-linecap:round;stroke-miterlimit:10;}
	.st28{fill:url(#SVGID_1_);}
	.st29{fill:none;stroke:#BDE5EC;stroke-width:14;stroke-linecap:round;stroke-linejoin:round;stroke-miterlimit:10;}
	.st30{fill:none;stroke:#FFFFFF;stroke-width:6;stroke-linecap:round;stroke-miterlimit:10;}
	.st31{fill:none;stroke:#E44450;stroke-width:6;stroke-miterlimit:10;}
	.st32{fill:url(#SVGID_2_);}
	.st33{fill:none;stroke:#E44450;stroke-width:4;stroke-miterlimit:10;stroke-dasharray:6,4;}
	.st34{fill:none;stroke:#BDE5EC;stroke-width:4;stroke-miterlimit:10;}
	.st35{fill:url(#SVGID_3_);}
	.st36{fill:none;stroke:#FFFFFF;stroke-width:2;stroke-linecap:round;stroke-miterlimit:10;}
	.st37{fill:#FFFFFF;}
	.st38{opacity:0.5;}
	.st39{fill:none;stroke:#E1927A;stroke-width:10;stroke-linecap:round;stroke-miterlimit:10;}
	.st40{fill:#C1705D;}
	.st41{fill:none;stroke:#E1927A;stroke-width:2.8371;stroke-linecap:round;stroke-miterlimit:10;}
</style><path class="st13" d="M51,91c-9,11-16,19-17,37c9,0,65,0,65,0c-1.9-6.7-9.9-15.4-18-26L56,87L51,91z"/><path class="st4" d="M98.6,24.6c3.7,10-2.4,17.4-3.6,19.5S67.5,64.6,67.1,75.7c-0.4,11.1,2,11.9,2,11.9s-7,1.8-11.9,6.5  c-16.4,15.8-29,4.3-34.2-5c9-16-7.7-50.5,14.2-72.4C55.6-1.8,89.9,0.6,98.6,24.6z"/><path class="st1" d="M79.5,76.4c0,0-0.9,21.6,1.5,25.6c-16,5-23.8-8-23.8-8s5.8-5-0.9-38.4C77.1,65.2,79.5,76.4,79.5,76.4z"/><path class="st2" d="M79.3,85.5c0-5,0.2-9.1,0.2-9.1S61.6,63.8,62,67.6C62.7,75.2,68.7,82.1,79.3,85.5z"/><path class="st1" d="M93.8,30.1c2.4,6.4,0.5,8.7,2.1,16.8c1.1,5.9,2.7,12.3,5.1,14.3c-2.4,4-7.2,4-7.2,4S93.6,84,79.5,81.2  c-19.9-4-24.7-23.9-24.7-23.9s-6.4,5.6-8.8-0.8s3.2-16.7,9.6-8c0.8-10.4,10-14.8,15.9-18.3C87.5,20.6,91.5,23.8,93.8,30.1z"/><path class="st1" d="M93.8,30.1c2.4,6.4,0.5,8.7,2.1,16.8c1.1,5.9,2.7,12.3,5.1,14.3c-2.4,4-7.2,4-7.2,4S93.6,84,79.5,81.2  c-19.9-4-24.7-23.9-24.7-23.9s-6.4,5.6-8.8-0.8s3.2-16.7,9.6-8c0.8-10.4,10-14.8,15.9-18.3C87.5,20.6,91.5,23.8,93.8,30.1z"/><path class="st4" d="M52.4,41.3c1.7,2.3,3.2,7.2,3.2,7.2s23.1-3.2,24.7-18.3c3.2,2.4,3.2,8,3.2,8s8.8-0.8,10.4-8  c5.5-25-35.1-15.1-41.5-8S50,38.1,52.4,41.3z"/><g><path class="st2" d="M51.5,49.3c-0.1,0.7-0.3,1.2-0.3,1.7c-0.1,0.5-0.1,0.9-0.2,1.3c0,0.4,0,0.8,0,1.3c0,0.3,0.1,0.5,0.1,0.8   c0,0.3,0.1,0.6,0.1,1l0,0.1c0,0.3-0.3,0.6-0.6,0.6c-0.1,0-0.1,0-0.2,0c-0.4-0.1-0.7-0.3-1-0.6c-0.3-0.3-0.6-0.5-0.8-0.9   C48.2,53.8,48,53,48,52.1c0-0.9,0.4-1.7,0.9-2.4c0.5-0.6,1.2-1.1,2-1.2c0.3-0.1,0.6,0.1,0.6,0.4c0,0.1,0,0.1,0,0.2L51.5,49.3z"/></g><circle class="st24" cx="94" cy="118" r="10"/><circle class="st25" cx="94" cy="118" r="5"/><circle class="st24" cx="43.6" cy="107.5" r="10"/><circle class="st25" cx="43.6" cy="107.5" r="5"/><g><polygon class="st25" points="103.9,113.1 110.9,108.5 110.4,110.3 108.3,108.1 107.3,107.2 108.7,105.8 113.5,100.8 116.9,105.8    110.6,108.5 111,106.2 112.3,108.9 113,110.3 111.9,110.7  "/></g><g><polygon class="st25" points="105.8,118.6 114.1,118.1 112.8,119.4 112.1,116.5 111.7,115.2 113.6,114.6 120.2,112.7 120.7,118.7    113.9,118 115.4,116.1 115.2,119.2 115.1,120.7 113.9,120.5  "/></g><g><polygon class="st25" points="31.5,111.7 24.1,115.6 24.7,113.9 26.6,116.3 27.4,117.3 26,118.5 20.7,123 17.8,117.8 24.3,115.6    23.7,117.9 22.6,115.1 22.1,113.6 23.3,113.4  "/></g><g><polygon class="st25" points="30.1,106.1 21.7,105.7 23.1,104.6 23.6,107.6 23.8,108.9 21.9,109.3 15.2,110.5 15.2,104.5 22,105.9    20.3,107.6 20.8,104.6 21,103 22.2,103.4  "/></g></svg>