<?xml version="1.0" ?><svg id="Layer_1" style="enable-background:new 0 0 128 128;" version="1.1" viewBox="0 0 128 128" xml:space="preserve" xmlns="http://www.w3.org/2000/svg" xmlns:xlink="http://www.w3.org/1999/xlink"><style type="text/css">
	.st0{fill:#F7F7EB;}
	.st1{fill:#FFC298;}
	.st2{fill:#E1927A;}
	.st3{fill:#DC5240;}
	.st4{fill:#892E1D;}
	.st5{fill:#AA4628;}
	.st6{fill:#6F1E14;}
	.st7{fill:#2C0412;}
	.st8{fill:#A4D877;}
	.st9{fill:#2AC06F;}
	.st10{fill:#F54045;}
	.st11{fill:#A91B35;}
	.st12{fill:#2652E4;}
	.st13{fill:#BDE5EC;}
	.st14{fill:#172A91;}
	.st15{fill:#F9A73D;}
	.st16{fill:#D25C2B;}
	.st17{fill:#812F4B;}
	.st18{fill:#3B0B1B;}
	.st19{fill:#FA9A31;}
	.st20{fill:#DC5F36;}
	.st21{fill:#BEECBD;}
	.st22{fill:#26E490;}
	.st23{fill:#10916A;}
	.st24{fill:#ECC6C3;}
	.st25{fill:#E44450;}
	.st26{fill:none;stroke:#E44450;stroke-width:2;stroke-linecap:round;stroke-miterlimit:10;}
	.st27{fill:none;stroke:#ECC6C3;stroke-width:4;stroke-linecap:round;stroke-miterlimit:10;}
	.st28{fill:url(#SVGID_1_);}
	.st29{fill:none;stroke:#BDE5EC;stroke-width:14;stroke-linecap:round;stroke-linejoin:round;stroke-miterlimit:10;}
	.st30{fill:none;stroke:#FFFFFF;stroke-width:6;stroke-linecap:round;stroke-miterlimit:10;}
	.st31{fill:none;stroke:#E44450;stroke-width:6;stroke-miterlimit:10;}
	.st32{fill:url(#SVGID_2_);}
	.st33{fill:none;stroke:#E44450;stroke-width:4;stroke-miterlimit:10;stroke-dasharray:6,4;}
	.st34{fill:none;stroke:#BDE5EC;stroke-width:4;stroke-miterlimit:10;}
	.st35{fill:url(#SVGID_3_);}
	.st36{fill:none;stroke:#FFFFFF;stroke-width:2;stroke-linecap:round;stroke-miterlimit:10;}
	.st37{fill:#FFFFFF;}
	.st38{opacity:0.5;}
	.st39{fill:none;stroke:#E1927A;stroke-width:10;stroke-linecap:round;stroke-miterlimit:10;}
	.st40{fill:#C1705D;}
	.st41{fill:none;stroke:#E1927A;stroke-width:2.8371;stroke-linecap:round;stroke-miterlimit:10;}
</style><path class="st13" d="M42,91c-9,11-16,19-17,37c9,0,65,0,65,0c-1.9-6.7-9.9-15.4-18-26L47,87L42,91z"/><path class="st4" d="M89.6,24.6c3.7,10-2.4,17.4-3.6,19.5S58.5,64.6,58.1,75.7s2,11.9,2,11.9s-7,1.8-11.9,6.5  c-16.4,15.8-29,4.3-34.2-5c9-16-7.7-50.5,14.2-72.4C46.6-1.8,80.9,0.6,89.6,24.6z"/><path class="st1" d="M70.5,76.4c0,0-0.9,21.6,1.5,25.6c-16,5-23.8-8-23.8-8s5.8-5-0.9-38.4C68.1,65.2,70.5,76.4,70.5,76.4z"/><path class="st2" d="M70.3,85.5c0-5,0.2-9.1,0.2-9.1S52.6,63.8,53,67.6C53.7,75.2,59.7,82.1,70.3,85.5z"/><path class="st1" d="M84.8,30.1c2.4,6.4,0.5,8.7,2.1,16.8c1.1,5.9,2.7,12.3,5.1,14.3c-2.4,4-7.2,4-7.2,4S84.6,84,70.5,81.2  c-19.9-4-24.7-23.9-24.7-23.9s-6.4,5.6-8.8-0.8s3.2-16.7,9.6-8c0.8-10.4,10-14.8,15.9-18.3C78.5,20.6,82.5,23.8,84.8,30.1z"/><path class="st1" d="M84.8,30.1c2.4,6.4,0.5,8.7,2.1,16.8c1.1,5.9,2.7,12.3,5.1,14.3c-2.4,4-7.2,4-7.2,4S84.6,84,70.5,81.2  c-19.9-4-24.7-23.9-24.7-23.9s-6.4,5.6-8.8-0.8s3.2-16.7,9.6-8c0.8-10.4,10-14.8,15.9-18.3C78.5,20.6,82.5,23.8,84.8,30.1z"/><linearGradient gradientUnits="userSpaceOnUse" id="SVGID_1_" x1="66.6195" x2="65.1821" y1="44.3051" y2="32.079"><stop offset="0" style="stop-color:#E44450;stop-opacity:0"/><stop offset="1" style="stop-color:#E44450"/></linearGradient><path class="st28" d="M86,44c0.2,0,0.3,0,0.4,0c-0.7-5.9,0.4-8.4-1.6-13.9c-2.4-6.4-6.4-9.6-22.3,0c-5.4,3.2-14,9.8-15.9,18.3  C51.7,47.8,74.5,44.5,86,44z"/><path class="st4" d="M43.4,41.3c1.7,2.3,3.2,7.2,3.2,7.2s23.1-3.2,24.7-18.3c3.2,2.4,3.2,8,3.2,8s8.8-0.8,10.4-8  c5.5-25-35.1-15.1-41.5-8S41,38.1,43.4,41.3z"/><g><path class="st2" d="M42.5,49.3c-0.1,0.7-0.3,1.2-0.3,1.7c-0.1,0.5-0.1,0.9-0.2,1.3c0,0.4,0,0.8,0,1.3c0,0.3,0.1,0.5,0.1,0.8   c0,0.3,0.1,0.6,0.1,1l0,0.1c0,0.3-0.3,0.6-0.6,0.6c-0.1,0-0.1,0-0.2,0c-0.4-0.1-0.7-0.3-1-0.6c-0.3-0.3-0.6-0.5-0.8-0.9   C39.2,53.8,39,53,39,52.1c0-0.9,0.4-1.7,0.9-2.4c0.5-0.6,1.2-1.1,2-1.2c0.3-0.1,0.6,0.1,0.6,0.4c0,0.1,0,0.1,0,0.2L42.5,49.3z"/></g><path class="st12" d="M62.4,56.6L62.4,56.6c-1.2,1.2-3.3,1.2-4.5,0l0,0c-1-1-1.2-2.5-0.6-3.8l2.8-5.2l2.8,5.2  C63.6,54.1,63.4,55.6,62.4,56.6z"/><path class="st12" d="M71.1,50.2L71.1,50.2c-1.2,1.2-3.3,1.2-4.5,0l0,0c-1-1-1.2-2.5-0.6-3.8l2.8-5.2l2.8,5.2  C72.3,47.7,72.1,49.2,71.1,50.2z"/><circle class="st13" cx="110" cy="41" r="10"/><line class="st29" x1="110" x2="110" y1="11.8" y2="40"/><line class="st30" x1="110" x2="110" y1="11.8" y2="40"/><line class="st31" x1="110" x2="110" y1="19.2" y2="40"/><circle class="st25" cx="110" cy="41" r="6"/></svg>