<?xml version="1.0" ?><svg id="Layer_1" style="enable-background:new 0 0 128 128;" version="1.1" viewBox="0 0 128 128" xml:space="preserve" xmlns="http://www.w3.org/2000/svg" xmlns:xlink="http://www.w3.org/1999/xlink"><style type="text/css">
	.st0{fill:#F7F7EB;}
	.st1{fill:#FFC298;}
	.st2{fill:#E1927A;}
	.st3{fill:#DC5240;}
	.st4{fill:#892E1D;}
	.st5{fill:#AA4628;}
	.st6{fill:#6F1E14;}
	.st7{fill:#2C0412;}
	.st8{fill:#A4D877;}
	.st9{fill:#2AC06F;}
	.st10{fill:#F54045;}
	.st11{fill:#A91B35;}
	.st12{fill:#2652E4;}
	.st13{fill:#BDE5EC;}
	.st14{fill:#172A91;}
	.st15{fill:#F9A73D;}
	.st16{fill:#D25C2B;}
	.st17{fill:#812F4B;}
	.st18{fill:#3B0B1B;}
	.st19{fill:#FA9A31;}
	.st20{fill:#DC5F36;}
	.st21{fill:#BEECBD;}
	.st22{fill:#26E490;}
	.st23{fill:#10916A;}
	.st24{fill:#ECC6C3;}
	.st25{fill:#E44450;}
	.st26{fill:none;stroke:#E44450;stroke-width:2;stroke-linecap:round;stroke-miterlimit:10;}
	.st27{fill:none;stroke:#ECC6C3;stroke-width:4;stroke-linecap:round;stroke-miterlimit:10;}
	.st28{fill:url(#SVGID_1_);}
	.st29{fill:none;stroke:#BDE5EC;stroke-width:14;stroke-linecap:round;stroke-linejoin:round;stroke-miterlimit:10;}
	.st30{fill:none;stroke:#FFFFFF;stroke-width:6;stroke-linecap:round;stroke-miterlimit:10;}
	.st31{fill:none;stroke:#E44450;stroke-width:6;stroke-miterlimit:10;}
	.st32{fill:url(#SVGID_2_);}
	.st33{fill:none;stroke:#E44450;stroke-width:4;stroke-miterlimit:10;stroke-dasharray:6,4;}
	.st34{fill:none;stroke:#BDE5EC;stroke-width:4;stroke-miterlimit:10;}
	.st35{fill:url(#SVGID_3_);}
	.st36{fill:none;stroke:#FFFFFF;stroke-width:2;stroke-linecap:round;stroke-miterlimit:10;}
	.st37{fill:#FFFFFF;}
	.st38{opacity:0.5;}
	.st39{fill:none;stroke:#E1927A;stroke-width:10;stroke-linecap:round;stroke-miterlimit:10;}
	.st40{fill:#C1705D;}
	.st41{fill:none;stroke:#E1927A;stroke-width:2.8371;stroke-linecap:round;stroke-miterlimit:10;}
</style><polygon class="st1" points="75,107 86,110 91.5,121 90.5,128 81.4,128 "/><path class="st13" d="M47.2,88.2C36.1,97.1,27.7,110.6,23,128c10,0,62,0,62,0c-3-8-7-13-10.7-22.9L52.9,85.3L47.2,88.2z"/><path class="st4" d="M107.4,32.9c1.5,10.5-5.9,16.5-7.5,18.3C98.3,53,68.8,65.8,66.1,76.5s-0.5,12-0.5,12s-7.2,0.3-13,3.9  c-19.3,12.1-29.3-1.7-32.5-11.9C33,63,23,29.6,48.9,12.6C70.6-1.6,103.7,7.7,107.4,32.9z"/><path class="st1" d="M78.1,79.7c0,0-5.3,21-3.8,25.4C57.6,106.7,53,95,52.7,92.4C57,88,59,78,59.7,54.7C78,68.3,78.1,79.7,78.1,79.7  z"/><path class="st2" d="M66,68c-0.8,7.4,0.1,18,9.4,23.6c1.2-6.1,2.6-11.9,2.6-11.9S66.5,64.2,66,68z"/><path class="st1" d="M101.6,37.4c1,6.7-1.2,8.6-1.4,16.9c-0.1,6,0.2,12.6,2.1,15c-3.2,3.4-7.8,2.4-7.8,2.4s-0.5,2.5-1.9,5.3  c-2.7-0.5-7.5-2.3-7.5-2.3s1.7,4.8,4.5,7.1c-2.7,3.1-6.8,6.6-12.5,4.2c-18.7-8-19.2-30.1-19.2-30.1s-7.4,4.2-8.4-2.6  s6.5-15.7,11-5.8c2.9-10,12.8-12.4,19.4-14.7C97.3,26.7,100.5,30.7,101.6,37.4z"/><path class="st4" d="M58.7,39.9c1.2,2.6,1.7,7.7,1.7,7.7s23.3,1.6,27.9-12.9c2.6,3,1.5,8.5,1.5,8.5s10.4,3.4,13.5-3.3  c10.5-23.3-32.9-24.4-40.6-18.7S57,36.2,58.7,39.9z"/><g><path class="st2" d="M56.2,47.5c-0.2,0.6-0.5,1.1-0.7,1.6c-0.2,0.5-0.3,0.8-0.4,1.2c-0.1,0.4-0.2,0.8-0.2,1.3   c-0.1,0.2,0,0.5-0.1,0.8c0,0.3,0,0.6-0.1,1l0,0.1c-0.1,0.3-0.4,0.5-0.7,0.4c-0.1,0-0.1,0-0.2-0.1c-0.3-0.2-0.6-0.5-0.9-0.8   c-0.2-0.3-0.5-0.6-0.6-1c-0.3-0.7-0.4-1.6-0.1-2.5c0.2-0.9,0.7-1.6,1.3-2.1c0.6-0.5,1.4-0.8,2.3-0.8c0.3,0,0.5,0.3,0.5,0.6   c0,0.1,0,0.1,0,0.2L56.2,47.5z"/></g><path class="st13" d="M91,79c2.3,5.5,5.3,9.8,9,13l7-4l-1-6C101.2,82.6,96.2,81.6,91,79z"/><path class="st33" d="M82,73.1l-7.2-2.7c-4.1-1.6-8.6,1-9.3,5.3L57,124"/><circle class="st13" cx="106.6" cy="89.3" r="6.4"/><circle class="st13" cx="105.8" cy="81.7" r="4.7"/><circle class="st13" cx="100.7" cy="93.6" r="4.7"/><polygon class="st2" points="77.3,112.2 82.3,114.2 84.4,118.3 81.5,121.4 "/><g><path class="st1" d="M72.6,112.9c0.6,0.7,1.5,1.4,2.3,2c0.8,0.6,1.7,1.2,2.5,1.6c0.9,0.5,1.7,0.8,2.6,1c0.9,0.2,1.7,0.3,2.5,0.3   c2,0,3.6,1.7,3.5,3.6c0,2-1.7,3.6-3.6,3.5c-0.3,0-0.5,0-0.8-0.1l-0.1,0c-1.5-0.4-2.8-0.9-4-1.6c-1.2-0.7-2.3-1.5-3.3-2.3   c-1-0.9-1.9-1.8-2.7-2.8c-0.8-1-1.5-1.9-2.2-3.1c-0.6-1-0.2-2.2,0.7-2.7c0.8-0.5,1.8-0.3,2.5,0.3L72.6,112.9z"/></g><path class="st1" d="M77.1,123.2c1.9,1.9,2.1,4.8,2.1,4.8h11.3l-5.4-13.9c0,0-5.2-0.9-3.6-0.2c1.6,0.6,1.1,4.4-2.5,3.4  C76.7,116.6,75.4,121.3,77.1,123.2z"/></svg>