<?xml version="1.0" ?><svg id="Layer_1" style="enable-background:new 0 0 128 128;" version="1.1" viewBox="0 0 128 128" xml:space="preserve" xmlns="http://www.w3.org/2000/svg" xmlns:xlink="http://www.w3.org/1999/xlink"><style type="text/css">
	.st0{fill:#F7F7EB;}
	.st1{fill:#FFC298;}
	.st2{fill:#E1927A;}
	.st3{fill:#DC5240;}
	.st4{fill:#892E1D;}
	.st5{fill:#AA4628;}
	.st6{fill:#6F1E14;}
	.st7{fill:#2C0412;}
	.st8{fill:#A4D877;}
	.st9{fill:#2AC06F;}
	.st10{fill:#F54045;}
	.st11{fill:#A91B35;}
	.st12{fill:#2652E4;}
	.st13{fill:#BDE5EC;}
	.st14{fill:#172A91;}
	.st15{fill:#F9A73D;}
	.st16{fill:#D25C2B;}
	.st17{fill:#812F4B;}
	.st18{fill:#3B0B1B;}
	.st19{fill:#FA9A31;}
	.st20{fill:#DC5F36;}
	.st21{fill:#BEECBD;}
	.st22{fill:#26E490;}
	.st23{fill:#10916A;}
	.st24{fill:#ECC6C3;}
	.st25{fill:#E44450;}
	.st26{fill:none;stroke:#E44450;stroke-width:2;stroke-linecap:round;stroke-miterlimit:10;}
	.st27{fill:none;stroke:#ECC6C3;stroke-width:4;stroke-linecap:round;stroke-miterlimit:10;}
	.st28{fill:url(#SVGID_1_);}
	.st29{fill:none;stroke:#BDE5EC;stroke-width:14;stroke-linecap:round;stroke-linejoin:round;stroke-miterlimit:10;}
	.st30{fill:none;stroke:#FFFFFF;stroke-width:6;stroke-linecap:round;stroke-miterlimit:10;}
	.st31{fill:none;stroke:#E44450;stroke-width:6;stroke-miterlimit:10;}
	.st32{fill:url(#SVGID_2_);}
	.st33{fill:none;stroke:#E44450;stroke-width:4;stroke-miterlimit:10;stroke-dasharray:6,4;}
	.st34{fill:none;stroke:#BDE5EC;stroke-width:4;stroke-miterlimit:10;}
	.st35{fill:url(#SVGID_3_);}
	.st36{fill:none;stroke:#FFFFFF;stroke-width:2;stroke-linecap:round;stroke-miterlimit:10;}
	.st37{fill:#FFFFFF;}
	.st38{opacity:0.5;}
	.st39{fill:none;stroke:#E1927A;stroke-width:10;stroke-linecap:round;stroke-miterlimit:10;}
	.st40{fill:#C1705D;}
	.st41{fill:none;stroke:#E1927A;stroke-width:2.8371;stroke-linecap:round;stroke-miterlimit:10;}
</style><path class="st13" d="M59.3,128c-2-3.7-4-7.6-6-12.9L31.9,95.3l-5.7,2.9c-8.8,7.1-16,17.2-20.9,29.8H59.3z"/><path class="st4" d="M86.4,42.9c1.5,10.5-5.9,16.5-7.5,18.3C77.3,63,47.8,75.8,45.1,86.5c-2.7,10.7-0.5,12-0.5,12s-7.4,0-13,3.9  c-13.8,9.8-23.5,2.8-29-7.1C10.2,81.7,2,39.6,27.9,22.6C49.6,8.4,82.7,17.7,86.4,42.9z"/><path class="st1" d="M57.1,89.7c0,0-5.3,21-3.8,25.4C36.6,116.7,32,105,31.7,102.4C36,98,38,88,38.7,64.7  C57,78.3,57.1,89.7,57.1,89.7z"/><path class="st2" d="M41.7,77.6C40.9,85,45.1,96,54.4,101.6c1.2-6.1,2.6-11.9,2.6-11.9S42.1,73.8,41.7,77.6z"/><path class="st1" d="M80.6,47.4c1,6.7-1.2,8.6-1.4,16.9c-0.1,6-0.9,13.5,1,15.9c-2.1,2.9-6.8,1.5-6.8,1.5s-2.2,7.6-4.4,10.4  c-2.7,3.1-7.3,6.3-13,3.9c-18.7-8-19.2-30.1-19.2-30.1s-7.4,4.2-8.4-2.6s6.5-15.7,11-5.8c2.9-10,12.8-12.4,19.4-14.7  C76.3,36.7,79.5,40.7,80.6,47.4z"/><path class="st4" d="M37.7,49.9c1.2,2.6,1.7,7.7,1.7,7.7s23.3,1.6,27.9-12.9c2.6,3,1.5,8.5,1.5,8.5s10.4,3,13.5-3.7  c10.5-23.3-32.9-24-40.6-18.3S36,46.2,37.7,49.9z"/><g><path class="st2" d="M35.2,57.5c-0.2,0.6-0.5,1.1-0.7,1.6c-0.2,0.5-0.3,0.8-0.4,1.2c-0.1,0.4-0.2,0.8-0.2,1.3   c-0.1,0.2,0,0.5-0.1,0.8c0,0.3,0,0.6-0.1,1l0,0.1c-0.1,0.3-0.4,0.5-0.7,0.4c-0.1,0-0.1,0-0.2-0.1c-0.3-0.2-0.6-0.5-0.9-0.8   c-0.2-0.3-0.5-0.6-0.6-1c-0.3-0.7-0.4-1.6-0.1-2.5c0.2-0.9,0.7-1.6,1.3-2.1c0.6-0.5,1.4-0.8,2.3-0.8c0.3,0,0.5,0.3,0.5,0.6   c0,0.1,0,0.1,0,0.2L35.2,57.5z"/></g><polyline class="st34" points="83.6,8.1 92.1,9.1 83.5,18.8 91,20.3 "/><polyline class="st34" points="97.9,3.4 108.5,4.6 97.8,16.8 107.2,18.6 "/><g><path class="st13" d="M121,117H88c-1.1,0-2-0.9-2-2V97c0-1.1,0.9-2,2-2h33c1.1,0,2,0.9,2,2v18C123,116.1,122.1,117,121,117z"/><rect class="st0" height="29" transform="matrix(-1.836970e-16 1 -1 -1.836970e-16 210.5 1.5)" width="14" x="97.5" y="91.5"/><rect class="st25" height="6" transform="matrix(-1.836970e-16 1 -1 -1.836970e-16 199.0134 12.9866)" width="14" x="86" y="103"/><path class="st13" d="M84,113h2V99h-2c-1.1,0-2,0.9-2,2v10C82,112.1,82.9,113,84,113z"/></g><g><polygon class="st13" points="107.5,100.5 106.3,106.7 105,104.5 106.8,104.5 109.9,104.5 108.2,106.7 104.5,111.2 105.5,105.4    106.8,107.5 105,107.5 101.9,107.5 103.6,105.4  "/></g></svg>