<?xml version="1.0" ?><svg id="Layer_1" style="enable-background:new 0 0 128 128;" version="1.1" viewBox="0 0 128 128" xml:space="preserve" xmlns="http://www.w3.org/2000/svg" xmlns:xlink="http://www.w3.org/1999/xlink"><style type="text/css">
	.st0{fill:#F7F7EB;}
	.st1{fill:#FFC298;}
	.st2{fill:#E1927A;}
	.st3{fill:#DC5240;}
	.st4{fill:#892E1D;}
	.st5{fill:#AA4628;}
	.st6{fill:#6F1E14;}
	.st7{fill:#2C0412;}
	.st8{fill:#A4D877;}
	.st9{fill:#2AC06F;}
	.st10{fill:#F54045;}
	.st11{fill:#A91B35;}
	.st12{fill:#2652E4;}
	.st13{fill:#BDE5EC;}
	.st14{fill:#172A91;}
	.st15{fill:#F9A73D;}
	.st16{fill:#D25C2B;}
	.st17{fill:#812F4B;}
	.st18{fill:#3B0B1B;}
	.st19{fill:#FA9A31;}
	.st20{fill:#DC5F36;}
	.st21{fill:#BEECBD;}
	.st22{fill:#26E490;}
	.st23{fill:#10916A;}
	.st24{fill:#ECC6C3;}
	.st25{fill:#E44450;}
	.st26{fill:none;stroke:#E44450;stroke-width:2;stroke-linecap:round;stroke-miterlimit:10;}
	.st27{fill:none;stroke:#ECC6C3;stroke-width:4;stroke-linecap:round;stroke-miterlimit:10;}
	.st28{fill:url(#SVGID_1_);}
	.st29{fill:none;stroke:#BDE5EC;stroke-width:14;stroke-linecap:round;stroke-linejoin:round;stroke-miterlimit:10;}
	.st30{fill:none;stroke:#FFFFFF;stroke-width:6;stroke-linecap:round;stroke-miterlimit:10;}
	.st31{fill:none;stroke:#E44450;stroke-width:6;stroke-miterlimit:10;}
	.st32{fill:url(#SVGID_2_);}
	.st33{fill:none;stroke:#E44450;stroke-width:4;stroke-miterlimit:10;stroke-dasharray:6,4;}
	.st34{fill:none;stroke:#BDE5EC;stroke-width:4;stroke-miterlimit:10;}
	.st35{fill:url(#SVGID_3_);}
	.st36{fill:none;stroke:#FFFFFF;stroke-width:2;stroke-linecap:round;stroke-miterlimit:10;}
	.st37{fill:#FFFFFF;}
	.st38{opacity:0.5;}
	.st39{fill:none;stroke:#E1927A;stroke-width:10;stroke-linecap:round;stroke-miterlimit:10;}
	.st40{fill:#C1705D;}
	.st41{fill:none;stroke:#E1927A;stroke-width:2.8371;stroke-linecap:round;stroke-miterlimit:10;}
</style><g><path class="st13" d="M39.2,88.2C28.1,97.1,19.7,110.6,15,128c10,0,62,0,62,0c-3-8-7-13-10.7-22.9L44.9,85.3L39.2,88.2z"/><path class="st4" d="M99.4,32.9c1.5,10.5-5.9,16.5-7.5,18.3C90.3,53,60.8,65.8,58.1,76.5c-2.7,10.7-0.5,12-0.5,12s-7.2,0.3-13,3.9   c-19.3,12.1-29.3-1.7-32.5-11.9C25,63,15,29.6,40.9,12.6C62.6-1.6,95.7,7.7,99.4,32.9z"/><path class="st1" d="M70.1,79.7c0,0-5.3,21-3.8,25.4C49.6,106.7,45,95,44.7,92.4C49,88,51,78,51.7,54.7   C70,68.3,70.1,79.7,70.1,79.7z"/><path class="st2" d="M54.7,67.6C53.9,75,58.1,86,67.4,91.6c1.2-6.1,2.6-11.9,2.6-11.9S55.1,63.8,54.7,67.6z"/><path class="st25" d="M84.5,77c-1.7-4.2-9.5-5-9.5-5s1,7,6.5,9.8"/><path class="st1" d="M93.6,37.4c1,6.7-1.2,8.6-1.4,16.9c-0.1,6,0.2,12.6,2.1,15c-3.2,3.4-7.8,2.4-7.8,2.4s-0.5,2.5-1.9,5.3   c-2.1-1.7-9.5-5-9.5-5s3.4,6.2,6.5,9.8c-2.7,3.1-6.8,6.6-12.5,4.2c-18.7-8-19.2-30.1-19.2-30.1s-7.4,4.2-8.4-2.6s6.5-15.7,11-5.8   c2.9-10,12.8-12.4,19.4-14.7C89.3,26.7,92.5,30.7,93.6,37.4z"/><path class="st4" d="M50.7,39.9c1.2,2.6,1.7,7.7,1.7,7.7s23.3,1.6,27.9-12.9c2.6,3,1.5,8.5,1.5,8.5s8.7,1,11.8-5.7   c10.5-23.3-31.2-22-38.9-16.3S49,36.2,50.7,39.9z"/><g><path class="st2" d="M48.2,47.5c-0.2,0.6-0.5,1.1-0.7,1.6c-0.2,0.5-0.3,0.8-0.4,1.2c-0.1,0.4-0.2,0.8-0.2,1.3    c-0.1,0.2,0,0.5-0.1,0.8c0,0.3,0,0.6-0.1,1l0,0.1c-0.1,0.3-0.4,0.5-0.7,0.4c-0.1,0-0.1,0-0.2-0.1c-0.3-0.2-0.6-0.5-0.9-0.8    c-0.2-0.3-0.5-0.6-0.6-1c-0.3-0.7-0.4-1.6-0.1-2.5c0.2-0.9,0.7-1.6,1.3-2.1c0.6-0.5,1.4-0.8,2.3-0.8c0.3,0,0.5,0.3,0.5,0.6    c0,0.1,0,0.1,0,0.2L48.2,47.5z"/></g><polygon class="st1" points="95.9,75.3 105.4,85.1 103.8,93.9 99.6,101.8 90.8,96.7  "/><polygon class="st13" points="90.8,104.6 88.9,128 104.2,128 102,103.8  "/><polygon class="st2" points="94.7,80.3 98.5,85.2 98.2,89.8 92.4,88.3  "/><path class="st12" d="M88.7,65.6c0,0-9.5,21.2-13.7,27.1c12,6.8,13.6,6.6,13.6,6.6s8-14.4,13.9-27.4C98.5,70.5,88.7,65.6,88.7,65.6   z"/><g><path class="st1" d="M90.9,79.2c0.2,0.9,0.6,2,0.9,2.9c0.4,0.9,0.8,1.9,1.4,2.7c0.5,0.8,1.1,1.6,1.7,2.2c0.6,0.6,1.3,1.1,2,1.5    c1.7,1,2.2,3.2,1.2,4.9c-1,1.7-3.2,2.2-4.9,1.2c-0.2-0.1-0.5-0.3-0.6-0.5l0,0c-1.1-1-2-2.2-2.7-3.4c-0.7-1.2-1.3-2.4-1.7-3.7    c-0.4-1.2-0.7-2.5-0.9-3.7c-0.2-1.3-0.3-2.4-0.3-3.8c0-1.1,0.9-2,2-2c0.9,0,1.7,0.6,2,1.5L90.9,79.2z"/></g><path class="st1" d="M89.5,90.4c1.3,3.9,0.9,9.4,0.9,9.4l8.2,1.5l2.4-14.7c0,0-4.1-3.4-3-2c1.1,1.4-1.3,4.4-3.9,1.7   C92.4,84.5,88.8,88,89.5,90.4z"/><polygon class="st12" points="102.6,110.4 102,103.8 90.8,104.6 90.5,108.5  "/><polygon class="st13" points="90.5,99.8 102.8,100.7 103.6,107.8 89.5,107.1  "/><circle class="st37" cx="92.9" cy="103.8" r="1.4"/></g></svg>