<?xml version="1.0" ?><svg id="Layer_1" style="enable-background:new 0 0 128 128;" version="1.1" viewBox="0 0 128 128" xml:space="preserve" xmlns="http://www.w3.org/2000/svg" xmlns:xlink="http://www.w3.org/1999/xlink"><style type="text/css">
	.st0{fill:#F7F7EB;}
	.st1{fill:#FFC298;}
	.st2{fill:#E1927A;}
	.st3{fill:#DC5240;}
	.st4{fill:#892E1D;}
	.st5{fill:#AA4628;}
	.st6{fill:#6F1E14;}
	.st7{fill:#2C0412;}
	.st8{fill:#A4D877;}
	.st9{fill:#2AC06F;}
	.st10{fill:#F54045;}
	.st11{fill:#A91B35;}
	.st12{fill:#2652E4;}
	.st13{fill:#BDE5EC;}
	.st14{fill:#172A91;}
	.st15{fill:#F9A73D;}
	.st16{fill:#D25C2B;}
	.st17{fill:#812F4B;}
	.st18{fill:#3B0B1B;}
	.st19{fill:#FA9A31;}
	.st20{fill:#DC5F36;}
	.st21{fill:#BEECBD;}
	.st22{fill:#26E490;}
	.st23{fill:#10916A;}
	.st24{fill:#ECC6C3;}
	.st25{fill:#E44450;}
	.st26{fill:none;stroke:#E44450;stroke-width:2;stroke-linecap:round;stroke-miterlimit:10;}
	.st27{fill:url(#SVGID_1_);}
	.st28{fill:none;stroke:#BDE5EC;stroke-width:14;stroke-linecap:round;stroke-linejoin:round;stroke-miterlimit:10;}
	.st29{fill:none;stroke:#FFFFFF;stroke-width:6;stroke-linecap:round;stroke-miterlimit:10;}
	.st30{fill:none;stroke:#E44450;stroke-width:6;stroke-miterlimit:10;}
	.st31{fill:url(#SVGID_2_);}
	.st32{fill:none;stroke:#E44450;stroke-width:4;stroke-miterlimit:10;stroke-dasharray:6,4;}
	.st33{fill:none;stroke:#BDE5EC;stroke-width:4;stroke-miterlimit:10;}
	.st34{opacity:0.5;}
	.st35{fill:none;stroke:#E1927A;stroke-width:10;stroke-linecap:round;stroke-miterlimit:10;}
	.st36{fill:none;stroke:#FFFFFF;stroke-width:2;stroke-linecap:round;stroke-miterlimit:10;}
	.st37{fill:#FFFFFF;}
	.st38{fill:#C1705D;}
	.st39{fill:none;stroke:#E1927A;stroke-width:2.8371;stroke-linecap:round;stroke-miterlimit:10;}
	.st40{fill:none;stroke:#ECC6C3;stroke-width:4;stroke-linecap:round;stroke-miterlimit:10;}
	.st41{fill:none;}
	.st42{fill:url(#SVGID_3_);}
	.st43{fill:none;stroke:#E44450;stroke-width:8;stroke-miterlimit:10;}
	.st44{fill:none;stroke:#BDE5EC;stroke-width:8;stroke-miterlimit:10;}
	.st45{fill:none;stroke:#FFFFFF;stroke-width:4;stroke-miterlimit:10;}
	.st46{fill:none;stroke:#BDE5EC;stroke-width:3;stroke-linecap:square;stroke-miterlimit:10;}
	.st47{fill:none;stroke:#FFFFFF;stroke-width:3;stroke-linecap:square;stroke-miterlimit:10;}
	.st48{fill:none;stroke:#E1927A;stroke-width:2.2567;stroke-linecap:round;stroke-miterlimit:10;}
	.st49{fill:none;stroke:#BDE5EC;stroke-width:6;stroke-miterlimit:10;}
</style><g><g><path class="st13" d="M85,119h37c2.2,0,4-1.8,4-4V44.9L116,30H91L81,44.9V115C81,117.2,82.8,119,85,119z"/><g><g><g><path class="st1" d="M71.3,88.9l-0.7,0.3l-0.6,0.2c-0.4,0.1-0.8,0.3-1.2,0.4c-0.8,0.2-1.6,0.4-2.4,0.6       c-1.6,0.4-3.2,0.7-4.8,0.9c-3.2,0.4-6.5,0.6-9.7,0.6c-1.6-0.1-3.2-0.1-4.8-0.3l-2.4-0.2L42,91c-1.6-0.2-3.2-0.6-4.8-0.9       c-1.6-0.3-3.1-0.8-4.7-1.2c-3.2-0.8-5.2-4.1-4.4-7.4s4.1-5.2,7.4-4.4c0.2,0,0.3,0.1,0.5,0.1l0.4,0.1c1.3,0.4,2.6,0.9,3.9,1.3       c1.3,0.4,2.6,0.8,4,1.1l2,0.5l2,0.4c1.3,0.3,2.7,0.4,4.1,0.6c2.7,0.3,5.5,0.3,8.2,0.2c1.4-0.1,2.7-0.2,4-0.4       c0.7-0.1,1.3-0.2,1.9-0.3c0.3-0.1,0.6-0.1,0.9-0.2l0.8-0.2l0.5-0.1c2.4-0.6,4.8,0.9,5.4,3.3C74.6,85.8,73.4,88.1,71.3,88.9z"/></g><g><path class="st1" d="M66.4,100.6l-1.3,0.1l-1.2,0.1c-0.8,0-1.5,0.1-2.3,0.1c-1.5,0.1-3,0.1-4.5,0c-3,0-6-0.2-9-0.4       c-3-0.2-5.9-0.5-8.9-0.9c-2.9-0.4-5.9-0.8-8.8-1.3c-3.3-0.5-5.5-3.6-5-6.9s3.6-5.5,6.9-5c0.2,0,0.3,0.1,0.5,0.1l0.1,0       c2.7,0.7,5.4,1.3,8.2,1.9c2.7,0.6,5.5,1.1,8.2,1.5c2.8,0.4,5.5,0.8,8.3,1.1c1.4,0.1,2.7,0.2,4.1,0.3c0.7,0,1.4,0.1,2,0.1l1,0       l0.9,0l0.4,0c2.5,0,4.5,2,4.5,4.5C70.4,98.5,68.6,100.4,66.4,100.6z"/></g><g><path class="st1" d="M54.6,110.7c-2.5-1.1-5.2-2.3-7.8-3.4c-2.6-1.1-5.3-2.2-7.9-3.2c-5.3-2.1-10.7-4.2-16-6.1       c-2.3-0.9-3.5-3.5-2.7-5.8c0.9-2.3,3.5-3.5,5.8-2.7c0.1,0,0.2,0.1,0.3,0.1c5.3,2.4,10.5,4.8,15.8,7.3c2.6,1.2,5.2,2.5,7.8,3.8       c2.6,1.3,5.2,2.6,7.8,4c1.6,0.9,2.2,2.9,1.4,4.6C58.2,110.9,56.3,111.5,54.6,110.7L54.6,110.7z"/></g><g><path class="st1" d="M73.5,83.6l-0.8,0.2l-0.7,0.1c-0.4,0.1-0.8,0.2-1.3,0.2c-0.8,0.1-1.7,0.2-2.5,0.3       c-1.6,0.2-3.3,0.3-4.9,0.3c-3.3,0-6.5-0.2-9.7-0.6c-1.6-0.3-3.2-0.5-4.8-0.9l-2.4-0.5l-2.3-0.6c-1.6-0.4-3.1-1-4.6-1.5       c-1.5-0.5-3-1.2-4.5-1.8c-3.1-1.2-4.7-4.7-3.4-7.8c1.2-3.1,4.7-4.7,7.8-3.4c0.1,0.1,0.3,0.1,0.4,0.2l0.4,0.2       c1.2,0.6,2.4,1.2,3.7,1.8c1.3,0.5,2.5,1.1,3.8,1.6l1.9,0.7l2,0.6c1.3,0.4,2.6,0.7,4,1.1c2.7,0.6,5.4,1,8.1,1.2       c1.4,0.1,2.7,0.1,4,0.1c0.7,0,1.3,0,2-0.1c0.3,0,0.6,0,1-0.1l0.8-0.1l0.5-0.1c2.5-0.3,4.7,1.5,5,4C77.2,81,75.7,83.1,73.5,83.6       z"/></g><g><path class="st1" d="M50.7,52.9l-9.4,5l-4.7,2.5l-0.6,0.3c-0.1,0.1-0.2,0.1-0.3,0.2c-0.1,0.1-0.2,0.1-0.2,0.1       c0,0.1,0.1,0.2,0.1,0.3c0.1,0.1,0.1,0.2,0.2,0.2c0.1,0,0,0.1-0.1,0.2L35.6,62l-0.3,0.5c-1.7,2.9-3.6,6-5.4,9l-2.7,4.6l-1.3,2.3       l-0.6,1.1L25,80.2l-0.1,0.3c-0.1,0.1,0.1-0.1,0.1-0.1l0.2-0.2c-4.3,5.4-12.1,6.3-17.5,2c-5.4-4.3-6.3-12.1-2-17.5L6,64.2       c0.1-0.1,0.3-0.3,0.3-0.3l0.3-0.2l0.6-0.4l1.1-0.8l2.2-1.6l4.5-3.1c3-2.1,6-4.1,9.2-6.2l0.6-0.4l0.3-0.2       c0.1-0.1,0.2-0.1,0.4-0.3c0.7-0.5,1.5-1,2.3-1.4c0.8-0.4,1.6-0.7,2.5-0.9c0.3-0.1,0.3-0.1,0.4-0.1c0.1,0,0.2,0,0.3-0.1l0.6-0.1       l5.1-1.2l10.3-2.4l0.2-0.1c2.5-0.6,4.9,1,5.5,3.4C53.4,49.9,52.4,52,50.7,52.9z"/></g><path class="st1" d="M39.2,59c-3.1,2.4-3.9,6.7,3.7,10.3c7.6,3.6-11.2,31.2-20.3,28.4S-4.9,90,1.6,71.2      C7.9,53.1,39.2,59,39.2,59z"/></g><path class="st48" d="M46.5,82.3c0,0,2.4,1.5,6.2,1.7"/><path class="st48" d="M73.7,83.6c0,0-7.8,1.8-16,0.7"/><path class="st48" d="M44.6,91.5c0.2,0,13.5,1.4,19.9-0.7"/><path class="st48" d="M39.7,98.4c0.4,0.1,7.9,2.5,13.6,2.5"/></g><polyline class="st49" points="107,16 74,16 63,27   "/><rect class="st37" height="42" width="36" x="81" y="60"/><rect class="st12" height="7" width="20" x="94" y="23"/><rect class="st12" height="15" width="12" x="98" y="8"/><line class="st43" x1="81" x2="109" y1="81" y2="81"/><line class="st43" x1="95" x2="95" y1="95" y2="67"/><path class="st12" d="M67.1,53.8L67.1,53.8c-2.3,2.3-6.1,2.3-8.5,0l0,0c-1.9-1.9-2.3-4.8-1-7.1l5.3-9.7l5.3,9.7    C69.4,49.1,69,52,67.1,53.8z"/><line class="st36" x1="85" x2="117" y1="45" y2="45"/></g><rect class="st41" height="128" width="128"/></g></svg>