<?xml version="1.0" ?><svg id="Layer_1" style="enable-background:new 0 0 128 128;" version="1.1" viewBox="0 0 128 128" xml:space="preserve" xmlns="http://www.w3.org/2000/svg" xmlns:xlink="http://www.w3.org/1999/xlink"><style type="text/css">
	.st0{fill:#F7F7EB;}
	.st1{fill:#FFC298;}
	.st2{fill:#E1927A;}
	.st3{fill:#DC5240;}
	.st4{fill:#892E1D;}
	.st5{fill:#AA4628;}
	.st6{fill:#6F1E14;}
	.st7{fill:#2C0412;}
	.st8{fill:#A4D877;}
	.st9{fill:#2AC06F;}
	.st10{fill:#F54045;}
	.st11{fill:#A91B35;}
	.st12{fill:#2652E4;}
	.st13{fill:#BDE5EC;}
	.st14{fill:#172A91;}
	.st15{fill:#F9A73D;}
	.st16{fill:#D25C2B;}
	.st17{fill:#812F4B;}
	.st18{fill:#3B0B1B;}
	.st19{fill:#FA9A31;}
	.st20{fill:#DC5F36;}
	.st21{fill:#BEECBD;}
	.st22{fill:#26E490;}
	.st23{fill:#10916A;}
	.st24{fill:#ECC6C3;}
	.st25{fill:#E44450;}
	.st26{fill:none;stroke:#E44450;stroke-width:2;stroke-linecap:round;stroke-miterlimit:10;}
	.st27{fill:url(#SVGID_1_);}
	.st28{fill:none;stroke:#BDE5EC;stroke-width:14;stroke-linecap:round;stroke-linejoin:round;stroke-miterlimit:10;}
	.st29{fill:none;stroke:#FFFFFF;stroke-width:6;stroke-linecap:round;stroke-miterlimit:10;}
	.st30{fill:none;stroke:#E44450;stroke-width:6;stroke-miterlimit:10;}
	.st31{fill:url(#SVGID_2_);}
	.st32{fill:none;stroke:#E44450;stroke-width:4;stroke-miterlimit:10;stroke-dasharray:6,4;}
	.st33{fill:none;stroke:#BDE5EC;stroke-width:4;stroke-miterlimit:10;}
	.st34{opacity:0.5;}
	.st35{fill:none;stroke:#E1927A;stroke-width:10;stroke-linecap:round;stroke-miterlimit:10;}
	.st36{fill:none;stroke:#FFFFFF;stroke-width:2;stroke-linecap:round;stroke-miterlimit:10;}
	.st37{fill:#FFFFFF;}
	.st38{fill:#C1705D;}
	.st39{fill:none;stroke:#E1927A;stroke-width:2.8371;stroke-linecap:round;stroke-miterlimit:10;}
	.st40{fill:none;stroke:#ECC6C3;stroke-width:4;stroke-linecap:round;stroke-miterlimit:10;}
	.st41{fill:none;}
	.st42{fill:url(#SVGID_3_);}
	.st43{fill:none;stroke:#E44450;stroke-width:8;stroke-miterlimit:10;}
	.st44{fill:none;stroke:#BDE5EC;stroke-width:8;stroke-miterlimit:10;}
	.st45{fill:none;stroke:#FFFFFF;stroke-width:4;stroke-miterlimit:10;}
	.st46{fill:none;stroke:#BDE5EC;stroke-width:3;stroke-linecap:square;stroke-miterlimit:10;}
	.st47{fill:none;stroke:#FFFFFF;stroke-width:3;stroke-linecap:square;stroke-miterlimit:10;}
	.st48{fill:none;stroke:#E1927A;stroke-width:2.2567;stroke-linecap:round;stroke-miterlimit:10;}
	.st49{fill:none;stroke:#BDE5EC;stroke-width:6;stroke-miterlimit:10;}
</style><g><path class="st13" d="M108,115H18V61c0-24.9,20.1-45,45-45h0c24.9,0,45,20.1,45,45V115z"/><path class="st37" d="M99,119H27V62c0-19.9,16.1-36,36-36H63c19.9,0,36,16.1,36,36V119z"/><g><circle class="st24" cx="63" cy="76.6" r="20.3"/><g><path class="st25" d="M66.9,51.9c1.4,0.2,1.9,0.4,2,0.6c0,0.2-0.2,0.4-0.8,0.6l-0.8,0.3c-0.2,0.1-0.6,0.2-0.7,0.3     c-0.4,0.2-0.4,0.4-0.5,0.6c-0.4,0.8-0.7,1.6-1,2.4c-0.3,0.8-0.5,1.6-0.6,2.4c-0.1,0.8-0.2,1.6,0,2.4c0.1,0.7-0.3,1.4-1.1,1.5     s-1.4-0.3-1.5-1.1c0-0.2,0-0.3,0-0.5c0.1-0.8,0.1-1.6,0-2.4c-0.1-0.8-0.3-1.6-0.6-2.4c-0.3-0.8-0.6-1.6-1-2.4     c-0.1-0.2-0.1-0.4-0.5-0.6c-0.1-0.1-0.5-0.2-0.7-0.3l-0.8-0.3c-0.6-0.2-0.8-0.4-0.8-0.6c0.1-0.2,0.6-0.4,2-0.6     C62,51.5,64.5,51.6,66.9,51.9z"/></g><g><path class="st25" d="M88,80.7c-0.2,1.4-0.4,1.9-0.6,2c-0.2,0-0.4-0.2-0.6-0.8l-0.3-0.8c-0.1-0.2-0.2-0.6-0.3-0.7     c-0.2-0.4-0.4-0.4-0.6-0.5c-0.8-0.4-1.6-0.7-2.4-1c-0.8-0.3-1.6-0.5-2.4-0.6c-0.8-0.1-1.6-0.2-2.4,0c-0.7,0.1-1.4-0.3-1.5-1.1     c-0.1-0.7,0.3-1.4,1.1-1.5c0.2,0,0.3,0,0.5,0c0.8,0.1,1.6,0.1,2.4,0c0.8-0.1,1.6-0.3,2.4-0.6c0.8-0.3,1.6-0.6,2.4-1     c0.2-0.1,0.4-0.1,0.6-0.5c0.1-0.1,0.2-0.5,0.3-0.7l0.3-0.8c0.2-0.6,0.4-0.8,0.6-0.8c0.2,0.1,0.4,0.6,0.6,2     C88.3,75.9,88.3,78.4,88,80.7z"/></g><g><path class="st25" d="M59.1,101.8c-1.4-0.2-1.9-0.4-2-0.6c0-0.2,0.2-0.4,0.8-0.6l0.8-0.3c0.2-0.1,0.6-0.2,0.7-0.3     c0.4-0.2,0.4-0.4,0.5-0.6c0.4-0.8,0.7-1.6,1-2.4c0.3-0.8,0.5-1.6,0.6-2.4c0.1-0.8,0.2-1.6,0-2.4c-0.1-0.7,0.3-1.4,1.1-1.5     c0.7-0.1,1.4,0.3,1.5,1.1c0,0.2,0,0.3,0,0.5c-0.1,0.8-0.1,1.6,0,2.4c0.1,0.8,0.3,1.6,0.6,2.4c0.3,0.8,0.6,1.6,1,2.4     c0.1,0.2,0.1,0.4,0.5,0.6c0.1,0.1,0.5,0.2,0.7,0.3l0.8,0.3c0.6,0.2,0.8,0.4,0.8,0.6c-0.1,0.2-0.6,0.4-2,0.6     C64,102.1,61.5,102.1,59.1,101.8z"/></g><g><path class="st25" d="M38,73c0.2-1.4,0.4-1.9,0.6-2c0.2,0,0.4,0.2,0.6,0.8l0.3,0.8c0.1,0.2,0.2,0.6,0.3,0.7     c0.2,0.4,0.4,0.4,0.6,0.5c0.8,0.4,1.6,0.7,2.4,1c0.8,0.3,1.6,0.5,2.4,0.6c0.8,0.1,1.6,0.2,2.4,0c0.7-0.1,1.4,0.3,1.5,1.1     c0.1,0.7-0.3,1.4-1.1,1.5c-0.2,0-0.3,0-0.5,0c-0.8-0.1-1.6-0.1-2.4,0c-0.8,0.1-1.6,0.3-2.4,0.6c-0.8,0.3-1.6,0.6-2.4,1     c-0.2,0.1-0.4,0.1-0.6,0.5c-0.1,0.1-0.2,0.5-0.3,0.7l-0.3,0.8c-0.2,0.6-0.4,0.8-0.6,0.8c-0.2-0.1-0.4-0.6-0.6-2     C37.7,77.8,37.7,75.3,38,73z"/></g><g><path class="st25" d="M83.4,61.9c0.9,1.1,1.1,1.7,1,1.9c-0.1,0.2-0.4,0.1-1-0.1l-0.8-0.3c-0.2-0.1-0.6-0.3-0.7-0.3     c-0.4-0.1-0.6,0-0.8,0.1c-0.9,0.3-1.6,0.7-2.4,1.1c-0.8,0.4-1.5,0.8-2.1,1.3c-0.7,0.5-1.3,1-1.7,1.7c-0.4,0.6-1.2,0.8-1.8,0.3     s-0.8-1.2-0.3-1.8c0.1-0.1,0.2-0.2,0.3-0.3c0.7-0.5,1.2-1.1,1.7-1.7c0.5-0.7,0.9-1.4,1.3-2.1c0.4-0.8,0.7-1.6,1.1-2.4     c0.1-0.2,0.2-0.4,0.1-0.8c0-0.2-0.2-0.5-0.3-0.7l-0.3-0.8c-0.3-0.6-0.3-0.9-0.1-1c0.2-0.1,0.7,0.1,1.9,1     C80.2,58.3,82,60.1,83.4,61.9z"/></g><g><path class="st25" d="M77.9,97.2c-1.1,0.9-1.7,1.1-1.9,1c-0.2-0.1-0.1-0.4,0.1-1l0.3-0.8c0.1-0.2,0.3-0.6,0.3-0.7     c0.1-0.4,0-0.6-0.1-0.8c-0.3-0.9-0.7-1.6-1.1-2.4c-0.4-0.8-0.8-1.5-1.3-2.1c-0.5-0.7-1-1.3-1.7-1.7c-0.6-0.4-0.8-1.2-0.3-1.8     s1.2-0.8,1.8-0.3c0.1,0.1,0.2,0.2,0.3,0.3c0.5,0.7,1.1,1.2,1.7,1.7c0.7,0.5,1.4,0.9,2.1,1.3c0.8,0.4,1.6,0.7,2.4,1.1     c0.2,0.1,0.4,0.2,0.8,0.1c0.2,0,0.5-0.2,0.7-0.3l0.8-0.3c0.6-0.3,0.9-0.3,1-0.1c0.1,0.2-0.1,0.7-1,1.9     C81.6,94,79.8,95.8,77.9,97.2z"/></g><g><path class="st25" d="M42.6,91.8c-0.9-1.1-1.1-1.7-1-1.9c0.1-0.2,0.4-0.1,1,0.1l0.8,0.3c0.2,0.1,0.6,0.3,0.7,0.3     c0.4,0.1,0.6,0,0.8-0.1c0.9-0.3,1.6-0.7,2.4-1.1c0.8-0.4,1.5-0.8,2.1-1.3c0.7-0.5,1.3-1,1.7-1.7c0.4-0.6,1.2-0.8,1.8-0.3     c0.6,0.4,0.8,1.2,0.3,1.8c-0.1,0.1-0.2,0.2-0.3,0.3c-0.7,0.5-1.2,1.1-1.7,1.7c-0.5,0.7-0.9,1.4-1.3,2.1c-0.4,0.8-0.7,1.6-1.1,2.4     c-0.1,0.2-0.2,0.4-0.1,0.8c0,0.2,0.2,0.5,0.3,0.7l0.3,0.8c0.3,0.6,0.3,0.9,0.1,1c-0.2,0.1-0.7-0.1-1.9-1     C45.8,95.4,44,93.6,42.6,91.8z"/></g><g><path class="st25" d="M48.1,56.5c1.1-0.9,1.7-1.1,1.9-1c0.2,0.1,0.1,0.4-0.1,1l-0.3,0.8c-0.1,0.2-0.3,0.6-0.3,0.7     c-0.1,0.4,0,0.6,0.1,0.8c0.3,0.9,0.7,1.6,1.1,2.4c0.4,0.8,0.8,1.5,1.3,2.1c0.5,0.7,1,1.3,1.7,1.7c0.6,0.4,0.8,1.2,0.3,1.8     s-1.2,0.8-1.8,0.3c-0.1-0.1-0.2-0.2-0.3-0.3c-0.5-0.7-1.1-1.2-1.7-1.7c-0.7-0.5-1.4-0.9-2.1-1.3c-0.8-0.4-1.6-0.7-2.4-1.1     c-0.2-0.1-0.4-0.2-0.8-0.1c-0.2,0-0.5,0.2-0.7,0.3L43,63.3c-0.6,0.3-0.9,0.3-1,0.1c-0.1-0.2,0.1-0.7,1-1.9     C44.4,59.6,46.2,57.9,48.1,56.5z"/></g></g><circle class="st44" cx="63" cy="12" r="8"/><circle class="st24" cx="78" cy="43.7" r="6"/><circle class="st24" cx="44.9" cy="46.8" r="3.2"/><circle class="st24" cx="83" cy="107" r="3"/><circle class="st24" cx="39" cy="104" r="3"/><polygon class="st12" points="121,128 7,128 11,115 117,115  "/><rect class="st41" height="128" width="128"/></g></svg>