<?xml version="1.0" ?><svg id="Layer_1" style="enable-background:new 0 0 128 128;" version="1.1" viewBox="0 0 128 128" xml:space="preserve" xmlns="http://www.w3.org/2000/svg" xmlns:xlink="http://www.w3.org/1999/xlink"><style type="text/css">
	.st0{fill:#F7F7EB;}
	.st1{fill:#FFC298;}
	.st2{fill:#E1927A;}
	.st3{fill:#DC5240;}
	.st4{fill:#892E1D;}
	.st5{fill:#AA4628;}
	.st6{fill:#6F1E14;}
	.st7{fill:#2C0412;}
	.st8{fill:#A4D877;}
	.st9{fill:#2AC06F;}
	.st10{fill:#F54045;}
	.st11{fill:#A91B35;}
	.st12{fill:#2652E4;}
	.st13{fill:#BDE5EC;}
	.st14{fill:#172A91;}
	.st15{fill:#F9A73D;}
	.st16{fill:#D25C2B;}
	.st17{fill:#812F4B;}
	.st18{fill:#3B0B1B;}
	.st19{fill:#FA9A31;}
	.st20{fill:#DC5F36;}
	.st21{fill:#BEECBD;}
	.st22{fill:#26E490;}
	.st23{fill:#10916A;}
	.st24{fill:#ECC6C3;}
	.st25{fill:#E44450;}
	.st26{fill:none;stroke:#E44450;stroke-width:2;stroke-linecap:round;stroke-miterlimit:10;}
	.st27{fill:url(#SVGID_1_);}
	.st28{fill:none;stroke:#BDE5EC;stroke-width:14;stroke-linecap:round;stroke-linejoin:round;stroke-miterlimit:10;}
	.st29{fill:none;stroke:#FFFFFF;stroke-width:6;stroke-linecap:round;stroke-miterlimit:10;}
	.st30{fill:none;stroke:#E44450;stroke-width:6;stroke-miterlimit:10;}
	.st31{fill:url(#SVGID_2_);}
	.st32{fill:none;stroke:#E44450;stroke-width:4;stroke-miterlimit:10;stroke-dasharray:6,4;}
	.st33{fill:none;stroke:#BDE5EC;stroke-width:4;stroke-miterlimit:10;}
	.st34{opacity:0.5;}
	.st35{fill:none;stroke:#E1927A;stroke-width:10;stroke-linecap:round;stroke-miterlimit:10;}
	.st36{fill:none;stroke:#FFFFFF;stroke-width:2;stroke-linecap:round;stroke-miterlimit:10;}
	.st37{fill:#FFFFFF;}
	.st38{fill:#C1705D;}
	.st39{fill:none;stroke:#E1927A;stroke-width:2.8371;stroke-linecap:round;stroke-miterlimit:10;}
	.st40{fill:none;stroke:#ECC6C3;stroke-width:4;stroke-linecap:round;stroke-miterlimit:10;}
	.st41{fill:none;}
	.st42{fill:url(#SVGID_3_);}
	.st43{fill:none;stroke:#E44450;stroke-width:8;stroke-miterlimit:10;}
	.st44{fill:none;stroke:#BDE5EC;stroke-width:8;stroke-miterlimit:10;}
	.st45{fill:none;stroke:#FFFFFF;stroke-width:4;stroke-miterlimit:10;}
	.st46{fill:none;stroke:#BDE5EC;stroke-width:3;stroke-linecap:square;stroke-miterlimit:10;}
	.st47{fill:none;stroke:#FFFFFF;stroke-width:3;stroke-linecap:square;stroke-miterlimit:10;}
	.st48{fill:none;stroke:#E1927A;stroke-width:2.2567;stroke-linecap:round;stroke-miterlimit:10;}
	.st49{fill:none;stroke:#BDE5EC;stroke-width:6;stroke-miterlimit:10;}
</style><g><path class="st24" d="M86.2,6C66.5,6,50.4,22,50.4,41.8c0,7.4,2.2,14.2,6,19.9l-6,17.9l21-5.2c4.5,2.1,9.5,3.2,14.8,3.2   c19.8,0,35.8-16,35.8-35.8S106,6,86.2,6z"/><circle class="st37" cx="86" cy="42" r="27"/><g><path class="st12" d="M67.7,96.7c-0.3,0.7-0.7,1.4-1,2.1c-0.8,1.8-1.5,1.5-3.7,1.5c-9.9,0.1-35.1-25-34.8-34.8    c0.1-2.1-0.3-2.8,1.5-3.7c1-0.5,2-0.9,3-1.4c1.3-0.7-6.1-35.9-7.5-35.8c-9.8,0.3-20,7.8-20,27.6c0,27.2,38.1,71.1,71.1,71.1    c18.7,0,26.4-9.1,27.5-18.3C104.1,103.1,68.5,95.1,67.7,96.7z"/><g><path class="st13" d="M103.4,104.8c0.2,0,0.3,0.1,0.5,0.2c0.2-2,0.1-3.9-0.2-5.8c-0.1-0.8-1.2-1.6-2-1.8     c-9.6-2.3-19.3-4.5-29-6.6c-0.7-0.1-1.9,0.5-2.3,1.1c-0.9,1.5-1.8,3.1-2.6,4.8C79.6,99.3,91.5,102,103.4,104.8z"/></g><g><path class="st13" d="M32.8,60.5c1.3-0.7,2.6-1.4,3.9-2.1c0.6-0.4,1.3-1.6,1.1-2.3c-2.1-9.7-4.3-19.3-6.6-29     c-0.2-0.8-1-1.9-1.8-2c-1.5-0.3-3.1-0.4-4.7-0.3C27.5,36.6,30.2,48.5,32.8,60.5z"/></g></g><line class="st43" x1="72" x2="100" y1="42" y2="42"/><line class="st43" x1="86" x2="86" y1="56" y2="28"/><rect class="st41" height="128" width="128"/></g></svg>