<?xml version="1.0" ?><svg id="Layer_1" style="enable-background:new 0 0 128 128;" version="1.1" viewBox="0 0 128 128" xml:space="preserve" xmlns="http://www.w3.org/2000/svg" xmlns:xlink="http://www.w3.org/1999/xlink"><style type="text/css">
	.st0{fill:#F7F7EB;}
	.st1{fill:#FFC298;}
	.st2{fill:#E1927A;}
	.st3{fill:#DC5240;}
	.st4{fill:#892E1D;}
	.st5{fill:#AA4628;}
	.st6{fill:#6F1E14;}
	.st7{fill:#2C0412;}
	.st8{fill:#A4D877;}
	.st9{fill:#2AC06F;}
	.st10{fill:#F54045;}
	.st11{fill:#A91B35;}
	.st12{fill:#2652E4;}
	.st13{fill:#BDE5EC;}
	.st14{fill:#172A91;}
	.st15{fill:#F9A73D;}
	.st16{fill:#D25C2B;}
	.st17{fill:#812F4B;}
	.st18{fill:#3B0B1B;}
	.st19{fill:#FA9A31;}
	.st20{fill:#DC5F36;}
	.st21{fill:#BEECBD;}
	.st22{fill:#26E490;}
	.st23{fill:#10916A;}
	.st24{fill:#ECC6C3;}
	.st25{fill:#E44450;}
	.st26{fill:none;stroke:#E44450;stroke-width:2;stroke-linecap:round;stroke-miterlimit:10;}
	.st27{fill:url(#SVGID_1_);}
	.st28{fill:none;stroke:#BDE5EC;stroke-width:14;stroke-linecap:round;stroke-linejoin:round;stroke-miterlimit:10;}
	.st29{fill:none;stroke:#FFFFFF;stroke-width:6;stroke-linecap:round;stroke-miterlimit:10;}
	.st30{fill:none;stroke:#E44450;stroke-width:6;stroke-miterlimit:10;}
	.st31{fill:url(#SVGID_2_);}
	.st32{fill:none;stroke:#E44450;stroke-width:4;stroke-miterlimit:10;stroke-dasharray:6,4;}
	.st33{fill:none;stroke:#BDE5EC;stroke-width:4;stroke-miterlimit:10;}
	.st34{opacity:0.5;}
	.st35{fill:none;stroke:#E1927A;stroke-width:10;stroke-linecap:round;stroke-miterlimit:10;}
	.st36{fill:none;stroke:#FFFFFF;stroke-width:2;stroke-linecap:round;stroke-miterlimit:10;}
	.st37{fill:#FFFFFF;}
	.st38{fill:#C1705D;}
	.st39{fill:none;stroke:#E1927A;stroke-width:2.8371;stroke-linecap:round;stroke-miterlimit:10;}
	.st40{fill:none;stroke:#ECC6C3;stroke-width:4;stroke-linecap:round;stroke-miterlimit:10;}
	.st41{fill:none;}
	.st42{fill:url(#SVGID_3_);}
	.st43{fill:none;stroke:#E44450;stroke-width:8;stroke-miterlimit:10;}
	.st44{fill:none;stroke:#BDE5EC;stroke-width:8;stroke-miterlimit:10;}
	.st45{fill:none;stroke:#FFFFFF;stroke-width:4;stroke-miterlimit:10;}
	.st46{fill:none;stroke:#BDE5EC;stroke-width:3;stroke-linecap:square;stroke-miterlimit:10;}
	.st47{fill:none;stroke:#FFFFFF;stroke-width:3;stroke-linecap:square;stroke-miterlimit:10;}
	.st48{fill:none;stroke:#E1927A;stroke-width:2.2567;stroke-linecap:round;stroke-miterlimit:10;}
	.st49{fill:none;stroke:#BDE5EC;stroke-width:6;stroke-miterlimit:10;}
</style><g><rect class="st37" height="12" width="124" x="1" y="101"/><rect class="st12" height="12" width="126" x="1" y="101"/><circle class="st13" cx="100" cy="116" r="11"/><circle class="st37" cx="100" cy="116" r="4"/><circle class="st13" cx="27" cy="116" r="11"/><circle class="st37" cx="27" cy="116" r="4"/><path class="st13" d="M87.9,39h-76C7.5,39,4,42.5,4,46.8V101h120V79.4c0-1.8-0.8-3.5-2-4.9l-28.3-33C92.3,39.7,90.1,39,87.9,39z"/><rect class="st37" height="6" width="60" x="9" y="50"/><rect class="st37" height="6" width="105" x="9" y="88"/><path class="st36" d="M115,73H92.2c-5.1,0-9.2-4.1-9.2-9.2V51h11"/><line class="st43" x1="29" x2="53" y1="72" y2="72"/><line class="st43" x1="41" x2="41" y1="84" y2="60"/><path class="st25" d="M58.7,34.4c0-5,3.8-9.1,8.5-9.1s8.5,4.1,8.5,9.1"/><rect class="st24" height="5" width="20" x="57" y="34"/><g><polygon class="st24" points="66.4,18.2 65.4,12.5 65.1,10.5 69.7,10.5 69.4,12.5 68.4,18.2 68.2,19.2 66.6,19.2   "/></g><g><polygon class="st24" points="75.3,19.9 78.8,15.1 79.9,13.5 83.1,16.7 81.5,17.9 76.8,21.3 75.9,21.9 74.8,20.7   "/></g><g><polygon class="st24" points="79.7,26.2 84.6,25.3 86.5,24.9 86.5,29.4 84.6,29.1 79.7,28.2 78.7,28 78.7,26.4   "/></g><g><polygon class="st24" points="49.4,25.3 55.1,26.2 56.1,26.3 56.1,28 55.1,28.2 49.4,29.1 47.5,29.4 47.5,25   "/></g><g><polygon class="st24" points="59.2,21.3 54.4,17.9 52.8,16.8 56.1,13.4 57.3,15.1 60.6,19.9 61.2,20.7 60.1,21.9   "/></g><rect class="st12" height="52" width="4" x="74" y="50"/><rect class="st41" height="128" width="128"/><polyline class="st25" points="124,82 119,82 119,96 124,96  "/></g></svg>