<?xml version="1.0" ?><svg id="Layer_1" style="enable-background:new 0 0 128 128;" version="1.1" viewBox="0 0 128 128" xml:space="preserve" xmlns="http://www.w3.org/2000/svg" xmlns:xlink="http://www.w3.org/1999/xlink"><style type="text/css">
	.st0{fill:#F7F7EB;}
	.st1{fill:#FFC298;}
	.st2{fill:#E1927A;}
	.st3{fill:#DC5240;}
	.st4{fill:#892E1D;}
	.st5{fill:#AA4628;}
	.st6{fill:#6F1E14;}
	.st7{fill:#2C0412;}
	.st8{fill:#A4D877;}
	.st9{fill:#2AC06F;}
	.st10{fill:#F54045;}
	.st11{fill:#A91B35;}
	.st12{fill:#2652E4;}
	.st13{fill:#BDE5EC;}
	.st14{fill:#172A91;}
	.st15{fill:#F9A73D;}
	.st16{fill:#D25C2B;}
	.st17{fill:#812F4B;}
	.st18{fill:#3B0B1B;}
	.st19{fill:#FA9A31;}
	.st20{fill:#DC5F36;}
	.st21{fill:#BEECBD;}
	.st22{fill:#26E490;}
	.st23{fill:#10916A;}
	.st24{fill:#ECC6C3;}
	.st25{fill:#E44450;}
	.st26{fill:none;stroke:#E44450;stroke-width:2;stroke-linecap:round;stroke-miterlimit:10;}
	.st27{fill:url(#SVGID_1_);}
	.st28{fill:none;stroke:#BDE5EC;stroke-width:14;stroke-linecap:round;stroke-linejoin:round;stroke-miterlimit:10;}
	.st29{fill:none;stroke:#FFFFFF;stroke-width:6;stroke-linecap:round;stroke-miterlimit:10;}
	.st30{fill:none;stroke:#E44450;stroke-width:6;stroke-miterlimit:10;}
	.st31{fill:url(#SVGID_2_);}
	.st32{fill:none;stroke:#E44450;stroke-width:4;stroke-miterlimit:10;stroke-dasharray:6,4;}
	.st33{fill:none;stroke:#BDE5EC;stroke-width:4;stroke-miterlimit:10;}
	.st34{opacity:0.5;}
	.st35{fill:none;stroke:#E1927A;stroke-width:10;stroke-linecap:round;stroke-miterlimit:10;}
	.st36{fill:none;stroke:#FFFFFF;stroke-width:2;stroke-linecap:round;stroke-miterlimit:10;}
	.st37{fill:#FFFFFF;}
	.st38{fill:#C1705D;}
	.st39{fill:none;stroke:#E1927A;stroke-width:2.8371;stroke-linecap:round;stroke-miterlimit:10;}
	.st40{fill:none;stroke:#ECC6C3;stroke-width:4;stroke-linecap:round;stroke-miterlimit:10;}
	.st41{fill:none;}
	.st42{fill:url(#SVGID_3_);}
	.st43{fill:none;stroke:#E44450;stroke-width:8;stroke-miterlimit:10;}
	.st44{fill:none;stroke:#BDE5EC;stroke-width:8;stroke-miterlimit:10;}
	.st45{fill:none;stroke:#FFFFFF;stroke-width:4;stroke-miterlimit:10;}
	.st46{fill:none;stroke:#BDE5EC;stroke-width:3;stroke-linecap:square;stroke-miterlimit:10;}
	.st47{fill:none;stroke:#FFFFFF;stroke-width:3;stroke-linecap:square;stroke-miterlimit:10;}
	.st48{fill:none;stroke:#E1927A;stroke-width:2.2567;stroke-linecap:round;stroke-miterlimit:10;}
	.st49{fill:none;stroke:#BDE5EC;stroke-width:6;stroke-miterlimit:10;}
</style><g><g><path class="st13" d="M38.2,99.9c-2.4,0.7-7.5,1.9-11.6,3c-3.9,1-6.9,3.9-8.1,7.7L13.2,128h68l-4.7-17.4c-1-3.8-4-6.8-7.8-7.9    l-10.9-3.2L38.2,99.9z"/><path class="st13" d="M39.6,89.4l-1.4,10.5c0,0,12.1,12.2,19.7-0.4c-3.7-10.1-0.7-16.3-0.7-16.3l-0.5-6L46,78.5L39.6,89.4z"/><path class="st13" d="M50.7,76.4c0,0,5,1.8,5-2.5c-0.1-4.3-5.8-9.1-7.5-2.4"/><path class="st13" d="M28.2,64.4c-3.5-1.9-4.8-6.2-2.9-9.7c1.9-3.5,6.2-4.8,9.7-2.9"/><path class="st13" d="M31.9,55c-1.7-1.8-1.6-4.5,0.1-6.2c1.8-1.7,4.5-1.6,6.2,0.1"/><path class="st13" d="M80,106.2c0,0-1.2-32.5-1.9-40.5S45,65.8,45,65.8l-6.8,38.8"/><path class="st13" d="M61,53.3c-9.9-12.4-25.5-7.1-31.6,3.3c-3,5.1-2.8,15.9-0.9,23.9c1.4,0,5.3,0.1,8.3-0.5c0,2.6-4.3,4.9-6.6,6    c0.6,1.6,1.4,2.8,2.1,3.6c4.6,4.8,11.1,3.1,13.4,1.7c3.4-2,10.1-4.3,13.5-9.9C65.5,71.2,66.5,60.2,61,53.3z"/></g><g><path class="st12" d="M74.1,98.7c-2.5,0.7-7.8,2-12.1,3.1c-4,1-7.2,4-8.4,8L48.1,128h71l-4.9-18.2c-1.1-4-4.1-7.1-8.1-8.2    l-11.4-3.3L74.1,98.7z"/><path class="st12" d="M75.6,87.7l-1.4,11c0,0,12.7,12.7,20.5-0.4c-3.9-10.6-0.7-17-0.7-17L93.4,75l-11.2,1.3L75.6,87.7z"/><path class="st12" d="M87.1,74.2c0,0,5.3,1.9,5.2-2.6c-0.1-4.5-6-9.5-7.8-2.5"/><path class="st12" d="M70.1,54.1c0,3.5-2.8,6.3-6.3,6.3c-3.5,0-6.3-2.8-6.3-6.3"/><path class="st12" d="M71.8,56.3c-2.5,2.5-6.4,2.5-8.9,0c-2.5-2.5-2.5-6.4,0-8.9"/><path class="st12" d="M101.7,82.9c-2.5,2.5-6.4,2.5-8.9,0s-2.5-6.4,0-8.9"/><path class="st12" d="M98,50c-10.4-12.9-26.6-7.4-33,3.4c-3.3,5.6-2.8,17.7-0.6,26.3c1.4-0.1,5.4-0.6,8.4-1.5    c-0.3,3.5-4.4,5.7-7,5.7c0.5,1.1,1.7,3.4,2.3,4c4.8,5,11.6,3.2,14,1.8c3.5-2.1,10.6-4.5,14.1-10.3C102.6,68.7,103.7,57.2,98,50z"/></g><path class="st46" d="M22.7,89.5c-3.1-2.3-3.8-6.6-1.6-9.8"/><path class="st46" d="M19.1,94.5c-5.9-4.2-7.2-12.4-2.9-18.3"/><path class="st47" d="M57.1,88.9c-3.1-2.3-3.8-6.6-1.6-9.8"/><path class="st47" d="M53.6,93.8c-5.9-4.2-7.2-12.4-2.9-18.3"/><circle class="st24" cx="64" cy="20" r="15"/><circle class="st30" cx="64" cy="20" r="15"/><line class="st30" x1="54.4" x2="73.6" y1="29.6" y2="10.4"/><rect class="st41" height="128" width="128"/></g></svg>