<?xml version="1.0" ?><svg data-name="Layer 1" id="Layer_1" viewBox="0 0 128 128" xmlns="http://www.w3.org/2000/svg"><defs><style>.cls-1{fill:#ffc298;}.cls-2{fill:#892e1d;}.cls-3{fill:#172a91;}.cls-4{fill:#2652e4;}.cls-5{fill:#bde5ec;}.cls-6{fill:#aa4628;}.cls-7{fill:#3b0b1b;}.cls-8,.cls-9{fill:none;}.cls-9{stroke:#e44450;stroke-miterlimit:10;stroke-width:6px;stroke-dasharray:12 6;}</style></defs><title/><path class="cls-1" d="M105.38,28.89l-.56,4.27s4.93,5,8-.16c-1.5-4.11-.28-6.61-.28-6.61l-.21-2.45-4.34.5Z"/><path class="cls-1" d="M108.49,29.63a9,9,0,0,0,4.33-5.69c.5-2.83.5-5.22-1.5-7.89s-9.72-2.11-10-1.66c-2,3.37-.45,12.15,1.29,14.48C104.14,30.91,108.49,29.63,108.49,29.63Z"/><path class="cls-2" d="M97.76,12.8a4,4,0,0,0,2.64,4.81c3.47,1.28,7.22-1.3,7.22-1.3a14.72,14.72,0,0,0,4.92,10.08c4.28-1.09,6.53-11.56-.69-15.15a9,9,0,0,0-11.76,2.49Z"/><path class="cls-1" d="M109.91,25s2-.62,2-2.36-1-2.42-3.57-1.28"/><path class="cls-1" d="M100,51c-.1,4.6-.29,9.21-.43,13.82l-.28,6.91q-.13,3.45-.32,6.91a2.36,2.36,0,0,1-4.7.08c-.21-2.3-.4-4.59-.57-6.89L93.19,65c-.31-4.6-.67-9.2-.94-13.8a3.89,3.89,0,0,1,7.77-.45C100,50.83,100,50.94,100,51Z"/><rect class="cls-3" height="1.85" width="24.01" x="96.65" y="70.75"/><polygon class="cls-4" points="96.65 72.6 99.32 122.38 106.81 123.38 108.32 81.41 109.49 81.63 110.5 123.38 117.98 122.38 120.66 72.6 96.65 72.6"/><rect class="cls-5" height="24.3" width="24.01" x="96.65" y="46.45"/><path class="cls-1" d="M127,51.32c-.43,4.59-1,9.18-1.43,13.77L124.81,72q-.37,3.44-.81,6.88a2.36,2.36,0,0,1-4.7-.26q-.06-3.47-.07-6.92l0-6.93c0-4.61,0-9.23.06-13.84A3.9,3.9,0,1,1,127,51C127,51.11,127,51.22,127,51.32Z"/><path class="cls-5" d="M104.85,31h7.61a2.66,2.66,0,0,1,2.66,2.66v7.5a0,0,0,0,1,0,0H102.19a0,0,0,0,1,0,0v-7.5A2.66,2.66,0,0,1,104.85,31Z"/><path class="cls-5" d="M105.69,32.9h6.43a15,15,0,0,1,15,15V53a0,0,0,0,1,0,0H92.19a0,0,0,0,1,0,0V46.4A13.5,13.5,0,0,1,105.69,32.9Z"/><polygon class="cls-3" points="126.82 128 110.5 128 110.5 123.38 118.27 122.38 125.3 124.69 126.82 128"/><polygon class="cls-3" points="90.49 128 106.81 128 106.81 123.38 99.03 122.38 92 124.69 90.49 128"/><polygon class="cls-6" points="16.17 125.27 21.41 125.27 25.03 93.74 16.96 89.27 16.17 125.27"/><path class="cls-6" d="M38.59,47.61,47.21,58,45,57.15l13.7-.3A1.77,1.77,0,0,1,59,60.36L45.5,62.56A2.3,2.3,0,0,1,43.6,62l-.3-.26-10-9a3.7,3.7,0,0,1,4.94-5.52A4.64,4.64,0,0,1,38.59,47.61Z"/><polygon class="cls-5" points="8.77 128.01 21.77 128.01 21.77 123.39 16.32 123.39 11.09 125.75 8.77 128.01"/><polygon class="cls-6" points="40.35 125.27 35.12 125.27 31.49 93.74 39.57 89.27 40.35 125.27"/><path class="cls-5" d="M40.72,101.86H11.35C18.9,91,14.17,69,19.91,63.29H37.45Z"/><circle class="cls-7" cx="21.01" cy="34.29" r="4.77"/><circle class="cls-7" cx="30.32" cy="21.71" r="4.77"/><circle class="cls-7" cx="22.88" cy="21.71" r="4.77"/><circle class="cls-7" cx="18.9" cy="27.35" r="4.77"/><path class="cls-6" d="M32.26,23.64s2.37,8.65.89,10.87-9.36.42-9.36.42a13.58,13.58,0,0,1-.62-2.81c-.1-.7-.2-1.54-.27-2.53C22.6,25.72,27.65,18.15,32.26,23.64Z"/><polygon class="cls-6" points="24.08 40.73 30.03 41.03 28.26 33.3 22.88 28.67 24.08 40.73"/><path class="cls-4" d="M37.63,63.37H19.83l-.93-15A9.37,9.37,0,0,1,28.26,39h0a9.37,9.37,0,0,1,9.37,9.37Z"/><path class="cls-7" d="M33,25.33c-1.09.49-5.05-.89-5.05-.89a1.75,1.75,0,0,1,0,2.37A4,4,0,0,1,25,28.4S22.15,31,24,32.12s1.87,4.76-.2,6a8,8,0,0,1-4-6.57L20,26l1.49-3.17,3.47-1.49,5.1-.29,2.52-.79Z"/><polygon class="cls-5" points="47.75 128.01 34.76 128.01 34.76 123.39 40.21 123.39 45.43 125.75 47.75 128.01"/><path class="cls-6" d="M22.56,48.89,19.42,63.66l-2.6-3,14.79.87a1.76,1.76,0,0,1,0,3.52l-14.79.87a2.49,2.49,0,0,1-2.63-2.34,1.5,1.5,0,0,1,0-.3l0-.35,1-15.06a3.7,3.7,0,1,1,7.39.5A4.34,4.34,0,0,1,22.56,48.89Z"/><path class="cls-4" d="M28.27,39h-2.8A10.48,10.48,0,0,0,15,49.49v.89l25.73-.21C38.54,44.69,34.55,39,28.27,39Z"/><rect class="cls-8" height="128" width="128"/><line class="cls-9" x1="64" x2="64" y1="6" y2="125"/></svg>