<?xml version="1.0" ?><svg data-name="Layer 1" id="Layer_1" viewBox="0 0 128 128" xmlns="http://www.w3.org/2000/svg"><defs><style>.cls-1{fill:#2652e4;}.cls-2{fill:#aa4628;}.cls-3{fill:#892e1d;}.cls-4{fill:#3b0b1b;}.cls-5,.cls-7{fill:#fff;}.cls-6{fill:#bde5ec;}.cls-7{opacity:0.4;}.cls-8{fill:none;}</style></defs><title/><path class="cls-1" d="M53,88.35c-3.36.93-10.58,2.75-16.44,4.21a16,16,0,0,0-11.42,10.86L17.68,128h96.09l-6.66-24.61a16,16,0,0,0-11-11.16L80.79,87.77Z"/><path class="cls-2" d="M54.91,73.48,53,88.35s17.14,17.18,27.81-.58c-5.22-14.29-1-23-1-23l-.73-8.5L64,58Z"/><path class="cls-3" d="M74.78,61.91c0-.4,4.44-3,4.5-3.38l-.19-2.24L64,58,54.91,73.48,53.55,83.92c4.3.31,9.77-2,11.81-3C72,77.64,74.18,71.52,74.78,61.91Z"/><path class="cls-2" d="M45,74c7,7.34,17.19,4.15,20.72,2.06,5.13-3,13.33-9.92,15.07-19.77s1.74-18.15-5.22-27.42-33.81-7.36-34.76-5.8C33.69,34.81,38.05,66.66,45,74Z"/><path class="cls-4" d="M95,42a5,5,0,0,0-1-3,4.95,4.95,0,0,0-.59-6.66A4.88,4.88,0,0,0,94,30a5,5,0,0,0-2.34-4.22,5,5,0,0,0-3.79-6.69A4.93,4.93,0,0,0,88,18a5,5,0,0,0-5-5,5.58,5.58,0,0,0-1,.1s0-.06,0-.1a5,5,0,0,0-8.32-3.71A5,5,0,0,0,65,8a5,5,0,0,0-8.43.7A5,5,0,0,0,49,13v0a5,5,0,0,0-8,4c0,.15,0,.3,0,.45A4.8,4.8,0,0,0,39,17a5,5,0,0,0-3.41,8.64,5,5,0,0,0,2,9.32A2.72,2.72,0,0,0,38,35a61.84,61.84,0,0,0,14.92-1.85,9.45,9.45,0,0,1,11.42,6.62,52.17,52.17,0,0,0,15.48,25,11.31,11.31,0,0,0,2.28-.88A5.28,5.28,0,0,0,83,64a5,5,0,0,0,5-5s0-.07,0-.1a5,5,0,0,0,3.67-6.68A5,5,0,0,0,94,48a4.88,4.88,0,0,0-.61-2.34A5,5,0,0,0,95,42Z"/><path class="cls-5" d="M55.28,51.63,68.06,46a.5.5,0,0,1,.66.26.49.49,0,0,1-.19.62L56.72,54.37a1.55,1.55,0,0,1-1.65-2.63Z"/><path class="cls-5" d="M61,62.81l12.16-8.7a.51.51,0,0,1,.64.78L63,65.19A1.55,1.55,0,1,1,60.85,63Z"/><path class="cls-2" d="M70.57,55.13s6.69,2.51,7-3.56C78,43,69.4,38.76,67,48.13"/><polygon class="cls-6" points="37 54 57 51 64 64 51.89 78.71 42 75 37 64 37 54"/><path class="cls-3" d="M73.79,52.21c-.2-.62-.34-1.19-.49-1.66a7.79,7.79,0,0,0-.57-1.26,7.1,7.1,0,0,0-.83-1.14c-.16-.21-.38-.38-.57-.61a6.47,6.47,0,0,1-.66-.7l0-.05a.45.45,0,0,1,.08-.64.43.43,0,0,1,.22-.09,5.06,5.06,0,0,1,1.1,0,4.7,4.7,0,0,1,1.08.35A4.06,4.06,0,0,1,74.88,48a3.89,3.89,0,0,1,.56,2.35,3.36,3.36,0,0,1-.88,2.1.43.43,0,0,1-.62,0,.39.39,0,0,1-.12-.19Z"/><polygon class="cls-7" points="37 64 51 58.15 38.36 67 37 64"/><polygon class="cls-7" points="42 75 53.31 63.78 45.34 76.25 42 75"/><rect class="cls-8" height="128" width="128"/></svg>