<?xml version="1.0" ?><svg data-name="Layer 1" id="Layer_1" viewBox="0 0 128 128" xmlns="http://www.w3.org/2000/svg"><defs><style>.cls-1{fill:#bde5ec;}.cls-2{fill:#892e1d;}.cls-3{fill:#aa4628;}.cls-4{fill:#fff;}.cls-5{fill:#2652e4;}.cls-6{fill:#172a91;}.cls-7{fill:#a91b35;}.cls-10,.cls-11,.cls-13,.cls-14,.cls-8{fill:none;}.cls-10,.cls-8{stroke:#fff;}.cls-10,.cls-11,.cls-13,.cls-8{stroke-miterlimit:10;}.cls-8{stroke-width:4px;}.cls-9{fill:#e44450;}.cls-10,.cls-11,.cls-13{stroke-width:3px;}.cls-11{stroke:#aa4628;}.cls-12{fill:#ffc298;}.cls-13{stroke:#bde5ec;}</style></defs><title/><rect class="cls-1" height="73.87" width="92" x="19" y="54.13"/><polygon class="cls-1" points="128 59 0.3 59 65 0.16 128 59"/><rect class="cls-2" height="31" width="22" x="33" y="91"/><rect class="cls-2" height="28" width="5" x="85" y="94"/><path class="cls-3" d="M91,95H37a4,4,0,0,1-4-4H95A4,4,0,0,1,91,95Z"/><path class="cls-4" d="M71,81H41V66a2,2,0,0,1,2-2H69a2,2,0,0,1,2,2Z"/><path class="cls-5" d="M41,81H71a0,0,0,0,1,0,0v2a2,2,0,0,1-2,2H43a2,2,0,0,1-2-2V81A0,0,0,0,1,41,81Z"/><rect class="cls-6" height="5" width="6" x="53" y="85"/><path class="cls-5" d="M60,88H52a3,3,0,0,0-3,3H63A3,3,0,0,0,60,88Z"/><path class="cls-7" d="M73,103H91a0,0,0,0,1,0,0v4a0,0,0,0,1,0,0H69a0,0,0,0,1,0,0v0A4,4,0,0,1,73,103Z"/><line class="cls-8" x1="83" x2="83" y1="115.5" y2="105"/><path class="cls-7" d="M94,107H79V87a6.91,6.91,0,0,1,7-7h3Z"/><path class="cls-9" d="M89,80h0a7,7,0,0,1,7,7v20a0,0,0,0,1,0,0H82a0,0,0,0,1,0,0V87A7,7,0,0,1,89,80Z"/><polyline class="cls-10" points="93.5 122 93.5 119.5 83 115.5 72.5 119.5 72.5 122"/><line class="cls-11" x1="37" x2="51" y1="106.5" y2="106.5"/><line class="cls-11" x1="37" x2="51" y1="120.5" y2="120.5"/><circle class="cls-12" cx="44" cy="99.34" r="1.69"/><circle class="cls-12" cx="44" cy="112.34" r="1.69"/><rect class="cls-12" height="6.17" width="92" x="19" y="121.83"/><path class="cls-4" d="M65,22a9,9,0,0,0-9,9V45H74V31A9,9,0,0,0,65,22Z"/><line class="cls-13" x1="53" x2="76.98" y1="32.48" y2="32.48"/><line class="cls-13" x1="64.99" x2="64.99" y1="20.49" y2="46.47"/><rect class="cls-14" height="128" width="128"/></svg>