<?xml version="1.0" ?><svg data-name="Layer 1" id="Layer_1" viewBox="0 0 128 128" xmlns="http://www.w3.org/2000/svg"><defs><style>.cls-1{fill:#2652e4;}.cls-2{fill:#aa4628;}.cls-3{fill:#892e1d;}.cls-4{fill:#3b0b1b;}.cls-5{fill:#e44450;}.cls-6{fill:#fff;}.cls-7{fill:none;}</style></defs><title/><path class="cls-1" d="M67,88.35c-3.36.93-10.58,2.75-16.44,4.21a16,16,0,0,0-11.42,10.86L31.68,128h96.09l-6.66-24.61a16,16,0,0,0-11-11.16L94.79,87.77Z"/><path class="cls-2" d="M68.91,73.48,67,88.35s17.14,17.18,27.81-.58c-5.22-14.29-1-23-1-23l-.73-8.5L78,58Z"/><path class="cls-3" d="M88.78,61.91c0-.4,4.44-3,4.5-3.38l-.19-2.24L78,58,68.91,73.48,67.55,83.92c4.3.31,9.77-2,11.81-3C86,77.64,88.18,71.52,88.78,61.91Z"/><path class="cls-2" d="M59,74c7,7.34,17.19,4.15,20.72,2.06,5.13-3,13.33-9.92,15.07-19.77s1.74-18.15-5.22-27.42-33.81-7.36-34.76-5.8C47.69,34.81,52.05,66.66,59,74Z"/><path class="cls-4" d="M109,42a5,5,0,0,0-1-3,4.95,4.95,0,0,0-.59-6.66A4.88,4.88,0,0,0,108,30a5,5,0,0,0-2.34-4.22,5,5,0,0,0-3.79-6.69A4.93,4.93,0,0,0,102,18a5,5,0,0,0-5-5,5.58,5.58,0,0,0-1,.1s0-.06,0-.1a5,5,0,0,0-8.32-3.71A5,5,0,0,0,79,8a5,5,0,0,0-8.43.7A5,5,0,0,0,63,13v0a5,5,0,0,0-8,4c0,.15,0,.3,0,.45A4.8,4.8,0,0,0,53,17a5,5,0,0,0-3.41,8.64,5,5,0,0,0,2,9.32A2.72,2.72,0,0,0,52,35a61.84,61.84,0,0,0,14.92-1.85,9.45,9.45,0,0,1,11.42,6.62,52.17,52.17,0,0,0,15.48,25,11.31,11.31,0,0,0,2.28-.88A5.28,5.28,0,0,0,97,64a5,5,0,0,0,5-5s0-.07,0-.1a5,5,0,0,0,3.67-6.68A5,5,0,0,0,108,48a4.88,4.88,0,0,0-.61-2.34A5,5,0,0,0,109,42Z"/><path class="cls-2" d="M84.57,55.13s6.69,2.51,7-3.56C92,43,83.4,38.76,81,48.13"/><path class="cls-3" d="M87.79,52.21c-.2-.62-.34-1.19-.49-1.66a7.79,7.79,0,0,0-.57-1.26,7.1,7.1,0,0,0-.83-1.14c-.16-.21-.38-.38-.57-.61a6.47,6.47,0,0,1-.66-.7l0-.05a.45.45,0,0,1,.08-.64.43.43,0,0,1,.22-.09,5.06,5.06,0,0,1,1.1,0,4.7,4.7,0,0,1,1.08.35A4.06,4.06,0,0,1,88.88,48a3.89,3.89,0,0,1,.56,2.35,3.36,3.36,0,0,1-.88,2.1.43.43,0,0,1-.62,0,.39.39,0,0,1-.12-.19Z"/><polygon class="cls-2" points="52.59 56.41 51.45 51.34 26.64 65.54 24.19 77.44 27.02 90.08 19.57 128.01 37.04 128.01 38.06 91.56 39.19 87.51 52.59 56.41"/><path class="cls-3" d="M52.59,56.41l-1.14-5.07h0a8,8,0,0,1-3,8.15L35.26,69.18l-2,6,10.68,1.34Z"/><path class="cls-2" d="M52.78,67.85c-.37.92-.69,1.63-1.08,2.4s-.79,1.5-1.23,2.24a32.46,32.46,0,0,1-3,4.24,25.92,25.92,0,0,1-4,3.78,22.3,22.3,0,0,1-5.11,2.9l0,0a4.86,4.86,0,1,1-3.73-9,4.59,4.59,0,0,1,1.08-.31A13.32,13.32,0,0,0,39,73.21a17.48,17.48,0,0,0,3.27-1.91,26.43,26.43,0,0,0,3.06-2.69c.48-.5,1-1,1.4-1.56s.9-1.13,1.24-1.59l.17-.24a2.71,2.71,0,0,1,4.69,2.63Z"/><path class="cls-2" d="M44,80.17c-3.56,4.32-5.9,11.39-5.9,11.39L27,89.34l4.44-19.69s6.82-2.19,4.75-1-.56,6.15,4.08,4.05C43.3,71.31,46.13,77.53,44,80.17Z"/><path class="cls-5" d="M20,13.47,3.43,42.22A3.16,3.16,0,0,0,6.17,47H39.36a3.17,3.17,0,0,0,2.75-4.75L25.51,13.47A3.17,3.17,0,0,0,20,13.47Z"/><polygon class="cls-6" points="25.75 21.83 24.04 34.49 21.5 34.49 19.79 21.83 25.75 21.83"/><circle class="cls-6" cx="22.77" cy="39.92" r="2.13"/><rect class="cls-7" height="128" width="128"/></svg>