<?xml version="1.0" ?><svg data-name="Layer 1" id="Layer_1" viewBox="0 0 128 128" xmlns="http://www.w3.org/2000/svg"><defs><style>.cls-1{fill:#e1927a;}.cls-2{fill:#c1705d;}.cls-3{fill:#bde5ec;}.cls-4{fill:#fff;}.cls-5{fill:#ffc298;}.cls-10,.cls-6{fill:none;}.cls-6{stroke:#e1927a;stroke-linecap:round;stroke-miterlimit:10;stroke-width:2.64px;}.cls-7{fill:#2652e4;}.cls-8{fill:#e44450;}.cls-9{fill:#ecc6c3;}</style></defs><title/><path class="cls-1" d="M84.71,54.58c-3,1.43-5.91,2.71-8.91,4s-6,2.45-9,3.58a136.72,136.72,0,0,1-19.07,5.71,7,7,0,0,1-2.92-13.67,5.21,5.21,0,0,1,.76-.12h0A125,125,0,0,0,63.23,50.8q4.46-1.12,8.9-2.45c2.94-.87,6-1.83,8.77-2.81l.09,0a4.91,4.91,0,0,1,3.72,9.07Z"/><path class="cls-1" d="M86.91,67.79c-3,1.14-5.87,2.23-8.82,3.3s-5.9,2.11-8.88,3.12c-6,2-12,3.92-18.25,5.54A7,7,0,0,1,47.47,66.2c.27-.06.57-.12.84-.16,5.85-.77,11.84-1.88,17.81-3.12q4.47-.95,9-2c3-.68,6-1.41,8.9-2.15h0a4.74,4.74,0,0,1,2.88,9Z"/><path class="cls-1" d="M86.42,80.78,54.06,89.2a7,7,0,1,1-3.52-13.54c.28-.07.6-.13.88-.17L84.6,71.3a4.84,4.84,0,0,1,1.82,9.48Z"/><path class="cls-1" d="M81.13,93.4a47.64,47.64,0,0,1-7.59,2.54c-2.49.64-4.93,1.1-7.37,1.52s-4.88.75-7.31,1-4.81.52-7.4.68h0a7,7,0,1,1-.86-14,6.79,6.79,0,0,1,1,0c2.1.17,4.44.28,6.67.35s4.5.08,6.73,0,4.44-.15,6.57-.39a38.18,38.18,0,0,0,6-1l.22-.07a5,5,0,0,1,3.35,9.3Z"/><path class="cls-1" d="M64.28,97.21c-8.74.23-26.18,15.9-39.35,11.45s-20.82-22-14.76-32.87C13.05,70.64,24.09,58.43,27.8,55c12.69-11.61,23.21.76,26.31,4.09C58.11,63.43,64.28,97.21,64.28,97.21Z"/><path class="cls-2" d="M49.61,54.43,45.73,77.34a11.16,11.16,0,0,1-22-3.73,11.47,11.47,0,0,1,1.17-3.41L35.24,57.27Z"/><path class="cls-1" d="M56.11,49.71q-4.45,3.3-8.74,6.87C46,57.76,44.52,59,43.11,60.17a10.35,10.35,0,0,0-.79.75c-.21.23-.42.47-.62.71a12.32,12.32,0,0,0-1.08,1.52A41.11,41.11,0,0,0,38.8,67c-.77,1.7-1.54,3.4-2.28,5.12q-2.27,5.13-4.32,10.39a11.23,11.23,0,0,1-20.92-8.17,11.53,11.53,0,0,1,2.35-3.68q3.9-4.08,7.59-8.3c1.24-1.4,2.46-2.81,3.68-4.22.63-.73,1.12-1.31,2-2.41a29.17,29.17,0,0,1,2.63-2.7,33.61,33.61,0,0,1,2.91-2.32c.51-.35,1-.69,1.54-1s1.13-.66,1.48-.84c1.66-.85,3.29-1.73,4.93-2.61Q45.3,43.63,50,40.73a5.43,5.43,0,0,1,6.08,9Z"/><circle class="cls-3" cx="101.94" cy="95.2" r="12.19"/><ellipse class="cls-4" cx="99.37" cy="88.3" rx="3.18" ry="1.92" transform="translate(-22.85 36.01) rotate(-18.46)"/><circle class="cls-3" cx="50.13" cy="84.78" r="17.48"/><ellipse class="cls-4" cx="46.46" cy="74.89" rx="4.56" ry="2.75" transform="translate(-21.33 18.57) rotate(-18.46)"/><circle class="cls-3" cx="65.99" cy="66.28" r="12.19"/><ellipse class="cls-4" cx="63.43" cy="59.37" rx="3.18" ry="1.92" transform="translate(-15.54 23.14) rotate(-18.46)"/><circle class="cls-3" cx="86.6" cy="68.74" r="18.23"/><ellipse class="cls-4" cx="82.77" cy="58.42" rx="4.76" ry="2.87" transform="translate(-14.24 29.22) rotate(-18.46)"/><circle class="cls-3" cx="72.73" cy="85.53" r="12.19"/><ellipse class="cls-4" cx="70.16" cy="78.62" rx="3.18" ry="1.92" transform="translate(-21.29 26.27) rotate(-18.46)"/><circle class="cls-3" cx="105.59" cy="80" r="12.19"/><ellipse class="cls-4" cx="103.03" cy="73.09" rx="3.18" ry="1.92" transform="translate(-17.84 36.39) rotate(-18.46)"/><path class="cls-5" d="M101.64,96.32l-.69.62-.59.5c-.4.34-.79.64-1.18.94-.78.62-1.57,1.18-2.36,1.73s-1.6,1.09-2.42,1.58-1.63,1-2.47,1.46A76.3,76.3,0,0,1,81.6,108c-.89.33-1.78.62-2.68.94s-1.8.6-2.71.85l-2.74.79-2.76.65c-1.84.47-3.72.72-5.58,1.08s-3.75.48-5.64.72A7.09,7.09,0,0,1,57.7,98.94a4.89,4.89,0,0,1,.55,0l.47,0c1.59-.08,3.2-.09,4.8-.21s3.21-.23,4.78-.5l2.38-.34L73,97.35c.79-.14,1.58-.31,2.35-.52s1.55-.38,2.32-.6a62.54,62.54,0,0,0,9-3.28c.73-.32,1.45-.66,2.15-1s1.39-.73,2.08-1.11,1.35-.79,2-1.2c.32-.21.64-.41.93-.62l.75-.53.53-.37a5.26,5.26,0,0,1,6.54,8.23Z"/><path class="cls-5" d="M101.35,111.26c-.55.3-.91.48-1.35.69l-1.24.6c-.83.37-1.65.75-2.46,1.09-1.64.72-3.28,1.37-4.92,2-3.29,1.26-6.6,2.38-9.93,3.43s-6.69,2-10,2.87c-1.68.44-3.37.84-5.06,1.26l-5.08,1.15a7.09,7.09,0,0,1-3.14-13.82l.61-.11.14,0,4.88-.66c1.62-.25,3.25-.48,4.86-.76,3.23-.55,6.46-1.15,9.65-1.86s6.36-1.47,9.48-2.35c1.55-.45,3.1-.91,4.61-1.42.76-.24,1.51-.51,2.25-.77l1.08-.4.94-.37.35-.14a5.28,5.28,0,0,1,4.38,9.59Z"/><path class="cls-5" d="M92.85,127.32c-3.22-.17-6.61-.27-9.93-.34s-6.69-.1-10-.11q-10.05,0-20.1.19a5.29,5.29,0,0,1-.23-10.57h.35q10.16.45,20.31,1.15c3.39.23,6.77.49,10.16.78s6.74.62,10.23,1a3.95,3.95,0,0,1-.67,7.86Z"/><path class="cls-5" d="M101.78,89.65l-.76.52-.66.43c-.43.28-.85.53-1.28.79-.85.51-1.7,1-2.56,1.42s-1.72.88-2.59,1.27-1.74.79-2.63,1.14a77.39,77.39,0,0,1-10.84,3.51l-2.78.6c-.93.21-1.86.38-2.8.51l-2.81.44-2.83.31c-1.88.24-3.77.26-5.67.38s-3.78,0-5.68,0a7.09,7.09,0,1,1,0-14.17,5.06,5.06,0,0,1,.55,0l.47,0c1.59.12,3.19.31,4.79.39s3.21.17,4.8.09l2.41,0,2.39-.17c.8,0,1.6-.12,2.39-.23s1.59-.19,2.38-.31a65.26,65.26,0,0,0,9.32-2.14c.76-.23,1.52-.49,2.25-.76s1.48-.56,2.21-.85,1.43-.62,2.11-.95l1-.49.81-.44.57-.3a5.27,5.27,0,0,1,5.48,9Z"/><path class="cls-5" d="M63.73,66,55.6,75.52l-4.07,4.79-.5.6a3.76,3.76,0,0,0-.25.31c-.07.1-.19.25-.13.23a.78.78,0,0,0,.27.24.83.83,0,0,0,.34.13c.05,0,0,.13,0,.24l-.06.34-.12.69c-.66,3.89-1.33,8.06-2,12.16l-.93,6.19-.44,3.08L47.53,106l-.09.72,0,.33v0s0,0,0-.06l.07-.13.13-.28a14.63,14.63,0,1,1-28-8.48l.26-.64.14-.32.06-.14,0,0,.24-.39.45-.72.89-1.37,1.78-2.68,3.56-5.32c2.4-3.56,4.76-7,7.34-10.72l.51-.72.26-.36a4.17,4.17,0,0,0,.31-.47,16.93,16.93,0,0,1,1.92-2.52,16.14,16.14,0,0,1,2.32-2.06,4.56,4.56,0,0,1,.43-.29,2.63,2.63,0,0,0,.33-.2l.64-.43,5.11-3.49c3.4-2.33,6.82-4.66,10.2-7l.18-.13A5.35,5.35,0,0,1,63.73,66Z"/><path class="cls-5" d="M53.87,77.49c-2.37,4-1.37,8.94,8.45,9.64s1.2,38.76-9.88,39.63S19.17,130.28,18.19,107C17.24,84.53,53.87,77.49,53.87,77.49Z"/><path class="cls-6" d="M71.81,99.8A17,17,0,0,0,79.24,99"/><path class="cls-6" d="M102,89.51a61.08,61.08,0,0,1-17.14,7.7"/><path class="cls-6" d="M73.68,110.7c.23-.12,15.26-4.23,21.36-9.36"/><path class="cls-6" d="M71.32,120.29c.41-.07,9.66-.72,15.89-3.06"/><path class="cls-7" d="M119.78,26.41h0a7.68,7.68,0,0,1-10.85,0h0a7.68,7.68,0,0,1-1.32-9.08l6.75-12.48,6.75,12.48A7.69,7.69,0,0,1,119.78,26.41Z"/><path class="cls-7" d="M111.56,47.64h0a6,6,0,0,1-8.47,0h0a6,6,0,0,1-1-7.08l5.27-9.74,5.26,9.74A6,6,0,0,1,111.56,47.64Z"/><path class="cls-8" d="M31.49,28c-.17,0-.33-.27-.48-.8a4.69,4.69,0,0,1-.23-1.26,1.43,1.43,0,0,1,.07-.58l6.49-7.94a3.74,3.74,0,0,0,1-2.33,2,2,0,0,0-.67-1.67,2.38,2.38,0,0,0-1.55-.54,3.71,3.71,0,0,0-1.52.29,6.85,6.85,0,0,0-1.06.55,1.44,1.44,0,0,1-.58.26,1.25,1.25,0,0,1-1-.61,2,2,0,0,1-.45-1.15c0-.72.52-1.29,1.56-1.72a9.19,9.19,0,0,1,3.54-.64,5.77,5.77,0,0,1,4.11,1.38,4.79,4.79,0,0,1,1.48,3.64A6.5,6.5,0,0,1,40.59,19L35.77,25h5.92c.52,0,.77.42.77,1.28v.43c0,.86-.25,1.28-.77,1.28Z"/><path class="cls-8" d="M54.94,25.72a5.3,5.3,0,0,1-8.92,0A12.15,12.15,0,0,1,44.41,19,12.17,12.17,0,0,1,46,12.24a5.31,5.31,0,0,1,8.92,0A12.08,12.08,0,0,1,56.56,19,12.06,12.06,0,0,1,54.94,25.72ZM48.25,19c0,4.12.75,6.18,2.23,6.18S52.71,23.1,52.71,19s-.74-6.17-2.23-6.17S48.25,14.87,48.25,19Z"/><path class="cls-8" d="M58.15,26.34a2.41,2.41,0,0,1,.48-1.15q.49-.75.87-.75s.34.12.93.36a4.19,4.19,0,0,0,1.58.36c1.05,0,1.57-.38,1.57-1.15a1.17,1.17,0,0,0-.53-1,4.77,4.77,0,0,0-1.28-.63,13.63,13.63,0,0,1-1.51-.61A3.06,3.06,0,0,1,59,20.6a3.85,3.85,0,0,1-.53-2.1,3.84,3.84,0,0,1,1.27-3,5.08,5.08,0,0,1,3.45-1.12,8.83,8.83,0,0,1,2,.21c1.23.27,1.84.74,1.84,1.41a3.14,3.14,0,0,1-.38,1.11c-.26.53-.5.79-.72.79l-.76-.27a4.05,4.05,0,0,0-1.42-.27c-.92,0-1.38.3-1.38.92a.94.94,0,0,0,.52.83,6.67,6.67,0,0,0,1.28.59,11.18,11.18,0,0,1,1.52.67,3.32,3.32,0,0,1,1.28,1.25,4,4,0,0,1,.52,2.12,4.19,4.19,0,0,1-1.32,3.24,4.69,4.69,0,0,1-3.3,1.22,9.88,9.88,0,0,1-3.32-.48C58.59,27.37,58.15,26.92,58.15,26.34Z"/><circle class="cls-9" cx="17.5" cy="20.5" r="9.5"/><path class="cls-8" d="M16.33,19.41l4.5-3.64a1,1,0,0,1,1.41,1.42L18.6,21.68a1.61,1.61,0,1,1-2.5-2A1.75,1.75,0,0,1,16.33,19.41Z"/><rect class="cls-9" height="3" width="7" x="14" y="7"/><rect class="cls-10" height="128" width="128"/></svg>